<?xml version="1.0" encoding="UTF-8"?>
<svg id="Calque_1" data-name="Calque 1" xmlns="http://www.w3.org/2000/svg" width="43.38mm" height="13.51mm" viewBox="0 0 122.98 38.3">
  <path d="M9.81,38.11c-5.32,0-9.81-2.83-9.81-6.53,0-2.23,1.81-4.04,4.04-4.04s4.04,1.81,4.04,4.04c0,2.83-2.49,3.24-2.23,4.68.19.94,1.51,1.62,3.96,1.62,1.92,0,3.81-1.55,3.81-3.58C13.62,28.61,0,24.95,0,17.86c0-4.53,5.51-6.15,9.58-6.15,2.41,0,4,.53,6.11.53.83,0,1.55-.11,2.04-.53h.23v7.13h-.23c-.6-3.17-3.36-6.86-7.24-6.86-1.92,0-3.66.91-3.81,3.17-.42,5.88,12.33,8.64,12.98,15.69.34,4.07-4.41,7.28-9.84,7.28Z"/>
  <path d="M39.34,28.76c0,5.28-3.85,9.54-8.6,9.54s-8.6-4.26-8.6-9.54,3.85-9.54,8.6-9.54,8.6,4.26,8.6,9.54ZM33.64,28.76c0-6.22-1.02-9.32-2.9-9.32s-2.94,3.09-2.94,9.32,1.06,9.32,2.94,9.32,2.9-3.13,2.9-9.32Z"/>
  <path d="M56.57,21.74c0,1.62-1.32,2.94-2.94,2.94s-2.9-1.32-2.9-2.94c0-.49.11-.68.11-.98,0-.38-.23-.57-.6-.57-.34,0-.83.15-1.43.45v15.39c0,.91.68,1.7,1.55,1.85v.23h-8.75v-.23c.87-.15,1.55-.94,1.55-1.85v-13.43c0-.94-.68-1.7-1.55-1.85v-.23l6.45-.94h.11c.38,0,.64.3.64.64v.19c1.36-.72,3.36-1.66,4.83-1.58,1.62.08,2.94,1.32,2.94,2.9Z"/>
  <path d="M74.52,33.7l.19.11c-1.51,2.72-4.22,4.49-7.28,4.49-4.75,0-8.6-4.26-8.6-9.54s3.85-9.54,8.6-9.54c4.11,0,7.17,3.21,8,7.47h-10.94c0,4.98,2.75,9.02,6.15,9.02,1.47,0,2.83-.75,3.88-2ZM64.49,26.46h5.81c-.23-4.68-1.21-7.02-2.87-7.02-2.6,0-2.9,5.73-2.94,7.02Z"/>
  <path d="M84.51,36.04c0,.91.68,1.7,1.55,1.85v.23h-8.75v-.23c.87-.15,1.55-.94,1.55-1.85V14.72c0-.91-.68-1.7-1.55-1.85v-.23l6.45-.94h.11c.38,0,.64.3.64.68v23.65Z"/>
  <path d="M95.15,36.04c0,.91.68,1.7,1.55,1.85v.23h-8.75v-.23c.87-.15,1.55-.94,1.55-1.85V14.72c0-.91-.68-1.7-1.55-1.85v-.23l6.45-.94h.11c.38,0,.64.3.64.68v23.65Z"/>
  <path d="M116,37.13v.23l-6.49.94h-.08c-.38,0-.68-.3-.68-.68v-.94c-.9.68-2.45,1.62-4.56,1.62-2.38,0-4.49-1.36-5.05-3.47-.6-2.15.6-4.38,2.68-5.66,3.24-2.04,12.07-3.32,12.07-6.22,0-1.02-1.02-2.11-2.23-2.72-1.47-.72-3.28-.98-5.13-.68-1.36.19-2.15.64-2.15,1.43,0,1.4,1.62,1.89,1.62,3.62,0,1.62-1.32,2.9-2.94,2.9s-2.9-1.28-2.9-2.9c0-2.94,3.66-4.9,6.34-5.28,1.96-.3,3.85-.04,5.28.72,1.43.72,2.68,2,2.68,3.85v11.39c0,.91.68,1.7,1.54,1.85ZM108.76,26.91v-.19c-1.54.72-3.85,1.92-4.07,5.09-.11,1.81.34,3.21,1.13,4.07.83.91,2.11,1.13,2.94.53v-9.51Z"/>
  <path d="M118.26,35.96c0-1.32,1.02-2.38,2.34-2.38s2.38,1.06,2.38,2.38-1.06,2.34-2.38,2.34-2.34-1.02-2.34-2.34Z"/>
  <path d="M23,.25c.11.11.17.24.17.4v5.38c0,.16-.05.3-.16.4-.11.11-.25.16-.42.16s-.31-.05-.42-.16-.16-.24-.16-.41v-3.75l-1.53,2.34c-.06.07-.13.13-.21.18-.08.05-.16.07-.25.06-.08,0-.16-.01-.24-.06-.08-.05-.15-.11-.21-.18l-1.53-2.43v3.83c0,.17-.05.3-.15.41s-.23.16-.39.16-.28-.05-.38-.16-.15-.24-.15-.4V.65c0-.15.06-.29.17-.4.11-.11.25-.17.41-.17.09,0,.19.02.28.07.09.05.16.11.21.18l2.03,3.12,2.08-3.12c.05-.07.12-.13.2-.18.08-.05.17-.07.26-.07.15,0,.29.05.4.16Z"/>
  <path d="M35.78,6.1c0,.16-.05.29-.16.4-.11.1-.23.15-.36.15-.11,0-.21-.03-.3-.1-.09-.07-.16-.16-.21-.28l-.48-1.12h-2.77l-.48,1.13c-.04.12-.11.21-.2.27-.09.07-.19.1-.29.1-.16,0-.28-.04-.37-.13-.08-.09-.13-.2-.13-.35,0-.06,0-.11.03-.18l2.32-5.56c.05-.12.12-.22.22-.29s.21-.1.33-.08c.11,0,.22.03.31.1.1.07.17.16.21.27l2.29,5.45c.03.08.05.16.05.22ZM31.95,4.07h1.86l-.94-2.18-.92,2.18Z"/>
  <path d="M43.62,6.44c-.12.11-.25.16-.41.16-.17,0-.31-.05-.41-.16-.11-.11-.16-.24-.16-.4V.66c0-.16.06-.3.17-.4.11-.11.25-.16.43-.16.16,0,.29.05.4.16.11.11.17.24.17.4v5.38c0,.16-.06.3-.18.4Z"/>
  <path d="M52.16,6.53c-.35-.11-.67-.3-.98-.57-.17-.15-.25-.31-.25-.49,0-.14.05-.27.16-.38s.23-.16.38-.16c.12,0,.22.04.32.11.25.2.49.35.72.45.24.09.52.14.84.14.35,0,.65-.08.9-.23.25-.15.38-.35.38-.58,0-.28-.12-.5-.37-.66-.25-.16-.64-.28-1.18-.36-1.36-.2-2.04-.83-2.04-1.9,0-.39.1-.73.31-1.02s.48-.51.84-.66.75-.23,1.18-.23c.39,0,.76.06,1.1.18s.63.27.86.46c.18.14.27.31.27.49,0,.14-.05.27-.16.38s-.23.16-.37.16c-.09,0-.18-.03-.25-.08-.16-.13-.38-.25-.67-.36s-.55-.16-.78-.16c-.39,0-.69.07-.91.22-.21.15-.32.34-.32.57,0,.27.11.47.33.6.22.14.57.25,1.04.33.53.09.96.21,1.28.36.32.15.56.34.72.6.16.25.24.58.24,1,0,.39-.11.73-.33,1.03-.22.29-.51.52-.88.68-.37.16-.76.24-1.18.24-.45,0-.84-.06-1.19-.17Z"/>
  <path d="M68.45,5.04c-.27.51-.65.92-1.13,1.21-.48.3-1.02.45-1.62.45s-1.14-.15-1.62-.45c-.48-.3-.86-.7-1.12-1.21-.27-.51-.4-1.07-.4-1.69s.13-1.18.4-1.69c.27-.51.64-.92,1.12-1.21.48-.3,1.02-.45,1.62-.45s1.14.15,1.62.45c.48.3.86.7,1.13,1.21.27.51.41,1.07.41,1.69s-.14,1.18-.41,1.69ZM67.4,2.22c-.17-.34-.4-.61-.7-.8-.3-.2-.63-.3-1.01-.3s-.71.1-1.01.29c-.29.2-.53.46-.69.8-.16.34-.25.72-.25,1.13s.08.79.25,1.13c.16.34.39.61.69.8.29.2.63.29,1.01.29s.71-.1,1.01-.3c.3-.2.53-.47.7-.8.17-.34.25-.71.25-1.13s-.08-.79-.25-1.13Z"/>
  <path d="M81.3.24c.09.1.14.22.14.37v5.42c0,.16-.05.3-.16.4-.11.11-.24.16-.4.16-.09,0-.17-.01-.26-.04s-.14-.07-.18-.12l-3.41-4.33v3.97c0,.15-.05.27-.14.37-.1.1-.22.15-.38.15s-.27-.05-.36-.15c-.09-.1-.14-.22-.14-.37V.66c0-.16.05-.3.16-.4.11-.11.24-.16.4-.16.09,0,.19.02.28.06s.16.09.2.15l3.38,4.31V.61c0-.15.05-.27.14-.37.1-.1.22-.15.37-.15s.27.05.36.15Z"/>
</svg>