<?xml version="1.0" encoding="UTF-8"?>
<svg id="Calque_1" xmlns="http://www.w3.org/2000/svg" width="261.17mm" height="168.87mm" viewBox="0 0 740.32 478.7">
  <path d="M474.42,221.19c5.27-1.64,11.21-4.71,17.32-5.11,10.77-.7,17.35,5.78,16.68,16.5-.52,8.34-2.75,16.67-4.98,24.79-2.56,9.3-6.07,18.33-8.92,27.55-.77,2.49-.92,5.26-.89,7.9.07,7.06,5.06,10.1,11.02,6.22,3.65-2.37,7.22-5.71,9.33-9.46,5.37-9.54,10.47-19.32,14.63-29.43,5.24-12.74,10.91-25.06,20.96-34.81,5.78-5.61,12.35-9.54,20.87-9.11,11.08.56,16.96,8.1,14.59,18.95-1.7,7.8-6.77,13.2-12.9,17.79-9.77,7.3-20.88,11.76-32.56,14.77-4.05,1.04-6.06,3.02-6.21,7.07-.01.33-.13.65-.18.98-1.23,7.62-1.8,15.34,5.04,20.7,7.29,5.71,15.65,5.08,23.75,1.82,9.77-3.93,16.37-11.66,20.84-20.71,5-10.11,9.1-20.71,12.96-31.32,6.66-18.31,12.82-36.8,19.19-55.22.49-1.42.66-3.22,1.64-4.13,1.48-1.37,3.55-2.12,5.37-3.13.77,1.92,2.57,4.14,2.13,5.72-2.01,7.21-4.65,14.24-7.08,21.33-7.56,22.05-15.2,44.08-22.62,66.18-1.53,4.55-2.62,9.33-3.23,14.09-.95,7.36,3.09,10.67,10.28,8.84,7.83-1.99,12.59-7.79,16.9-14.03,9.32-13.48,14.19-28.94,19.47-44.2,6.04-17.47,12.09-34.94,18.14-52.41.43-1.25.6-2.91,1.5-3.62,1.28-1.01,3.33-2.07,4.65-1.7,1.21.34,2.49,2.49,2.65,3.97.18,1.68-.76,3.52-1.35,5.25-9.73,28.53-19.58,57.02-29.13,85.6-1.56,4.66-2.33,9.73-2.57,14.66-.25,5.38,3.12,7.68,8.52,6.81,7.31-1.18,12.69-5.66,16.24-11.52,5.58-9.2,10.82-18.75,14.95-28.67,5.1-12.25,10.31-24.36,20.02-33.63,4.1-3.91,9.24-7.22,14.5-9.3,7.37-2.91,16.2-.34,19.62,4.72,4.58,6.78,3.76,14.18-.7,20.15-4.17,5.59-9.53,10.97-15.54,14.36-8.61,4.85-18.2,8.05-27.55,11.46-3.24,1.18-5.24,2.55-5.48,6.03-.05.66-.33,1.3-.41,1.95-.84,7.37-1.87,15.01,4.75,20.39,7.21,5.86,15.56,5.37,23.71,2.25,10.05-3.84,16.17-12,21.37-20.89,2.27-3.87,3.81-8.19,6.28-11.91,1.12-1.69,3.97-3.65,5.56-3.3,3.26.7,3.22,3.74,1.94,6.49-4.88,10.47-10.38,20.6-19.02,28.48-3.4,3.1-7.32,5.92-11.47,7.84-18.63,8.61-33.75,2.82-42.01-16.09-2.29,2.83-4.36,5.56-6.6,8.15-5.04,5.85-11.1,10.02-18.93,11.22-9.21,1.41-15.04-2.25-17.74-11.19-.22-.74-.52-1.46-.92-2.56-2.85,2.69-5.08,5.48-7.92,7.33-3.71,2.4-7.71,4.76-11.93,5.89-10.69,2.87-17.27-1.42-19.94-12.2-.18-.74-.4-1.47-.65-2.4-19.56,22.19-51.72,19.93-57.97-3.77-1.48,2.13-2.61,3.82-3.8,5.47-4.06,5.59-8.51,10.7-15.45,12.86-10.65,3.31-19.96-2.69-19.45-13.76.37-8.17,2.55-16.36,4.73-24.31,2.81-10.25,6.69-20.21,9.59-30.45,1.48-5.23,1.6-10.84-4.05-14.22-4.62-2.77-10.45-1.36-15.78,3.95-10.22,10.19-16.91,22.67-22.03,35.97-4.79,12.43-8.89,25.12-13.56,37.6-.84,2.24-2.67,4.82-4.69,5.64-1.21.49-3.68-2.13-5.87-3.54-2.4.98-5.36,2.59-8.53,3.38-9.9,2.49-17.65-2.88-17.96-13.04-.18-5.72.66-11.66,2.19-17.19,3.18-11.54,7.11-22.87,10.93-34.89-6.8-2.46-13.59-4.91-20.96-7.57-4.96,10.92-9.81,21.82-14.85,32.64-5.69,12.21-10.87,24.77-20.87,34.36-1.54,1.48-3.32,2.82-5.2,3.82-10.57,5.63-18.36,2.36-23.97-10.3-6.69,7.15-13.98,13.08-24.36,12.71-11.54-.4-16.82-7.27-17.69-17.04-5.83,1.52-11.25,3.59-16.82,4.15-3.37.34-7.25-1.12-10.39-2.75-3.07-1.6-4.35-.79-6.58,1.38-4.37,4.25-8.88,8.73-14.15,11.61-12.69,6.92-23.56,1.33-26.25-12.76-.12-.61-.31-1.21-.69-2.64-2.07,2.44-3.7,4.4-5.36,6.33-4.92,5.69-10.72,9.95-18.32,11.32-9.65,1.74-15.23-1.45-18.55-10.66-.21-.58-.55-1.12-1.02-2.07-1.94,2.05-3.48,3.98-5.33,5.55-2.4,2.03-4.84,4.19-7.63,5.54-5.49,2.65-11.27,3.38-16.62-.42-5.33-3.79-7.12-9.53-5.82-15.49,2.52-11.52,5.4-23.01,8.99-34.24,3.85-12.04,8.69-23.76,13.07-35.64,1.05-2.86,2.4-5.58,6.02-4.27,3.84,1.38,2.53,4.46,1.6,7.16-6.18,17.77-12.53,35.49-18.48,53.34-1.67,5-2.78,10.35-3.06,15.59-.38,6.99,4.3,10.04,10.36,6.52,4.15-2.41,7.98-6.12,10.7-10.09,10.46-15.27,16.23-32.75,22.36-50.02,1.71-4.82,3.37-9.66,5.35-15.34-4.38,0-8.05.42-11.54-.18-1.74-.3-3.17-2.46-4.74-3.77,1.59-1.33,3.16-2.68,4.78-3.98.2-.16.65-.02.98-.03q13.64-.33,17.99-13.42c1.64-4.89,3.44-9.73,5.05-14.63.9-2.74,2.52-4.57,5.49-3.69,3.36,1,3.36,3.72,2.4,6.52-2.79,8.15-5.61,16.28-8.69,25.23,4.51,0,8.29-.03,12.06,0,2.86.03,5.41,1.19,4.67,4.28-.37,1.52-3.1,2.49-4.8,3.66-.23.16-.65.02-.99.03-4.61.22-10.28-1.1-13.51,1.12-3.04,2.1-3.62,7.9-5.08,12.14-4.99,14.48-10.06,28.94-14.72,43.54-1.34,4.2-1.83,8.81-1.92,13.25-.09,4.9,3.05,7.17,7.92,6.54,7.35-.95,12.87-5.27,16.45-11.15,5.77-9.48,11.1-19.32,15.58-29.47,5.41-12.25,10.39-24.77,20.11-34.19,4.21-4.08,10.03-7.71,15.67-8.87,13.7-2.82,23.59,7.18,22.74,21.76-.85,14.6-5.96,27.92-12.61,40.74-2.75,5.29-1.8,7.35,4.08,8.44,7.13,1.33,12.62-1.73,16.26-7.37,3.77-5.83,7.08-12.07,9.72-18.49,5.45-13.24,10.31-26.72,15.42-40.11.24-.62.56-1.22.75-1.85.9-2.95,2.67-4.89,5.87-3.69,3.44,1.29,2.67,4.16,1.7,6.76-2.96,7.96-6.05,15.87-8.98,23.85-3.96,10.78-7.99,21.55-11.62,32.44-1.13,3.39-1.55,7.19-1.49,10.78.14,7.64,5.7,11.83,13.19,10.26,6.82-1.43,12.01-5.67,14.98-11.56,6.05-12.01,11.58-24.31,16.77-36.73,4.3-10.29,7.83-20.9,11.63-31.39,1.04-2.87,2.34-5.69,5.92-4.47,3.91,1.33,2.96,4.44,1.9,7.5-6.82,19.66-13.65,39.31-20.25,59.04-1.14,3.41-1.65,7.18-1.67,10.79-.03,6.05,3.83,8.95,9.2,6.31,3.99-1.97,8.02-5.19,10.34-8.91,5.26-8.44,9.66-17.45,14.05-26.4,4.7-9.57,8.89-19.38,13.51-28.98,1.48-3.07,1.16-5.09-1.58-7.23-4.77-3.73-6.99-8.85-6.57-14.92.47-6.81,5.6-11.61,12.07-11.52,6.14.09,10.67,4.46,10.95,11.31.13,3.07-.36,6.43-1.56,9.24-1.83,4.3-.23,6.02,3.61,7.26,6.02,1.94,11.97,4.1,17.96,6.14,4.92,1.68,5.64,3.19,3.95,8.21-3.82,11.37-7.81,22.68-11.33,34.14-1.45,4.72-2.39,9.73-2.66,14.66-.38,6.78,4.72,10.11,10.48,6.51,4.21-2.63,8.51-6.42,10.69-10.74,6.89-13.63,13.04-27.65,19.01-41.71,3.51-8.26,6.12-16.91,9.17-25.37.95-2.64,1.77-6.26,5.4-5.12,1.94.6,3.12,3.62,4.11,4.88ZM266.25,266.86c4.16-9.28,7.65-19.46,7.59-30.47-.06-9.63-8.32-14.97-16.89-10.6-3.99,2.03-7.8,5.32-10.39,8.97-4.4,6.2-8.23,12.92-11.48,19.8-5.14,10.9-8.59,22.4-8.31,34.63.25,10.85,7.35,14.67,16.37,8.53,4.32-2.94,8.04-6.93,11.48-10.92,1.36-1.57,1.53-4.42,1.68-6.73.27-4.28.02-8.58.2-12.87.12-2.87,1.27-5.84,4.56-5.2,1.89.37,3.34,3.02,5.2,4.85ZM680.79,259.2c10.4-2.25,24.39-8.49,30.79-14.27,3.1-2.8,5.97-6.36,7.64-10.15,2.82-6.4-.32-10.66-7.23-10.21-3.16.21-6.67,1.19-9.26,2.95-11.05,7.51-16.15,19.22-21.94,31.69ZM539,258.75c12.5-3.78,24.84-7.74,33.85-17.76,2.01-2.23,3.45-5.34,4.16-8.28,1.22-5.05-1.35-7.86-6.53-8.25-5.16-.39-9.46,1.53-13.18,4.84-8.92,7.92-14.12,18.22-18.3,29.46ZM394.18,222.03c.52-.12,1.04-.25,1.57-.37.6-2.19,1.55-4.36,1.69-6.58.09-1.42-.68-3.22-1.68-4.27-.57-.6-2.96-.52-3.47.11-.9,1.12-1.63,3.06-1.29,4.35.62,2.37,2.08,4.53,3.19,6.77Z"/>
  <path d="M486.31,155.85c-26.99,0-53.98,0-80.98,0-.5,0-1,.01-1.5,0-10.96-.14-18.06-4.45-20.65-12.51-2.79-8.68.25-18.26,9.79-23.41,10.74-5.8,22.32-10.2,33.84-14.39,15.64-5.68,31.69-10.24,47.31-15.96,9.71-3.55,18.72-8.72,25.78-16.64,6.16-6.9,8.69-14.85,6.81-24.02-1.74-8.48-8.08-13.97-16.71-14.54-10.44-.69-21.51,6.5-24.24,15.72-1.44,4.87-.86,9.29,3.1,12.78,2.29,2.02,3.86,4.62,1.17,6.61-1.33.98-5.22.24-6.76-1.1-8.83-7.66-8.69-21.16.05-30.83,6.45-7.14,14.56-11.02,24.18-11.47,18.12-.84,30.85,14.75,27.74,33.77-1.77,10.86-7.82,18.93-16.37,25.34-13.43,10.07-29.09,15.31-44.78,20.42-13.93,4.53-28,8.67-41.8,13.56-5.57,1.97-10.87,5.05-15.79,8.37-5.38,3.64-6.95,8.63-5.42,13.34,1.49,4.58,5.18,6.79,12,7.06,2.66.11,5.33.05,8,.05,51.65,0,103.3.02,154.96-.03,2.97,0,6.05-.17,8.89-.96,6.06-1.69,9.21-8.88,5.46-13.89-3.07-4.09-7.26-8.2-11.86-10.13-11.94-5.01-24.36-8.88-36.63-13.11-4.88-1.68-10.01-2.74-14.7-4.8-1.95-.86-4.5-3.85-4.24-5.47.54-3.44,3.91-2.86,6.53-1.99,17.52,5.82,35.11,11.45,52.46,17.76,4.52,1.64,8.65,5.04,12.24,8.41,6.04,5.68,7.22,12.86,4.36,20.66-2.78,7.57-8.83,10.4-16.27,11.17-1.65.17-3.33.19-4.99.19-26.99.01-53.98,0-80.98,0v.02Z"/>
  <path d="M225.5,143.07c-7.24,4.32-13.57,8.89-20.56,11.96-4.01,1.76-9.17,1.81-13.68,1.36-9.43-.95-15.17-6.09-16.45-13.52-1.64-9.47,2.44-19.04,10-23.32,7.48-4.23,15.15-3.73,22.54-.11,5.19,2.55,9.98,5.92,15.71,9.38,15.05-28.86,20.87-61.09,32.84-92.33-7.32,1.12-13.69,1.8-19.93,3.13-9.75,2.07-19.51,4.23-29.07,7.03-6.94,2.03-13.03,5.87-17.34,12.03-7.58,10.83-3.97,28.49,11.3,29.53,1.43.1,2.67,2.93,4,4.49-1.73,1.16-3.44,3.26-5.21,3.32-9.17.27-18.08-6.96-20.94-16.43-3.64-12.06.65-25.46,10.69-33.12,10.98-8.38,24.05-11.15,37.18-13.58,9.17-1.69,18.4-3.02,27.64-4.3,3.45-.48,5.3-1.97,6.96-5.21,2.62-5.12,6.1-9.87,9.69-14.4,1.56-1.97,4.14-3.37,6.53-4.4,5.25-2.27,11.49-.45,14.32,3.78,2.73,4.07,2.65,10.07-1.99,13.56-6,4.52-12.94,7.93-19.79,11.12-3.08,1.44-5.23,2.69-6.32,6.13-6.82,21.41-13.6,42.85-20.93,64.09-3.3,9.56-7.91,18.66-11.72,28.06-.61,1.5-.86,4.23,0,5.06,13.3,12.82,26.55,25.72,40.4,37.94,7.17,6.33,15.77,10.71,25.86,10.37,8.69-.3,16.32-2.72,21.34-10.71.79-1.26,3.53-1.3,5.38-1.91.45,2.08,2.01,5.05,1.17,6.09-3.16,3.93-6.52,8.32-10.84,10.57-16.43,8.57-32.12,4.76-45.63-6.27-13.77-11.24-26.34-23.94-39.44-36-1.58-1.45-3.16-2.9-3.71-3.39ZM217.85,136.05c-6.22-4.81-12.12-9.65-19.91-11.03-5.39-.96-9.83,1.06-12.9,5.6-2.67,3.96-3.58,8.37-1.24,12.71,2.65,4.9,7.48,5.83,12.48,5.35,8.86-.86,15.98-4.93,21.57-12.63ZM269.67,22.93c.57.67,1.15,1.34,1.72,2,3.77-2.46,7.73-4.68,11.21-7.51,1.05-.85.77-3.36,1.09-5.1-1.84.18-4.34-.33-5.4.67-3.17,2.99-5.79,6.58-8.62,9.94Z"/>
  <path d="M486.39,406.83c40.49,0,80.98,0,121.47,0,10.03,0,19.08-2.87,26.63-9.61,12.36-11.02,11.62-32.76-1.77-42.58-3.27-2.4-7.84-3.77-11.94-4.11-7.78-.65-15.65-.23-23.48-.22-2.9,0-5.56-.41-5.65-4.04-.08-3.66,2.57-4.22,5.47-4.22,8.66,0,17.33-.2,25.99.06,12.56.38,23.96,11.36,27.4,25.98,5.37,22.82-9.18,42.7-34.09,46.43-3.44.52-6.97.71-10.45.71-79.48.04-158.95.04-238.43,0-8.66,0-16.92,1.37-24.41,5.98-10.8,6.64-15.55,16.85-12.99,27.84,2.78,11.9,12.41,20.51,24.76,21.21,9.63.55,19.32.21,28.98.27,1.33,0,2.95-.44,3.93.16,1.5.91,3.49,2.52,3.53,3.88.03,1.31-2.14,3.84-3.35,3.85-12.97.07-26.1.92-38.87-.77-14.78-1.96-25.25-14.32-27.61-29.19-2.2-13.85,4.56-27.09,17.65-34.71,9.07-5.28,18.91-6.97,29.27-6.95,39.32.08,78.64.03,117.97.03Z"/>
  <path d="M111.04,248.52c14.53,14.25,12.3,32.04,11.2,49.51-.48,7.64-1.68,15.24-2.2,22.88-.24,3.44,0,7.02.71,10.4,1.43,6.74,4.39,9.26,11.22,10.07,2.84.34,5.71.69,5.46,4.31-.26,3.7-3.17,4.15-6.27,4.02-11-.46-18.94-8.32-19.12-20.92-.15-10.94,1.67-21.89,2.09-32.85.32-8.28.64-16.71-.53-24.86-1.85-12.86-8.84-18.67-21.84-19.9-2.84-.27-5.74-.57-5.78-4.06-.05-3.9,3.16-4,6.1-4.23,14.48-1.15,27.91-5.02,38.41-15.76,7.66-7.82,11.32-17.24,9.75-28.23-2.16-15.04-14.37-25.12-31.39-26.27-31.65-2.13-54.53,17.02-59.13,49.65-.7,4.93-.43,10.01-1.32,14.89-.3,1.68-2.75,2.98-4.22,4.45-1.26-1.49-3.63-2.99-3.62-4.46.26-25.26,6.65-48.14,28.72-63.22,17.13-11.7,36.26-13.21,55.41-5.7,26.2,10.28,32.55,43.07,12.7,63.66-3.54,3.68-7.65,6.97-11.97,9.69-4.32,2.73-9.24,4.52-14.38,6.95Z"/>
  <path d="M313.3,140.79c-2.18,2.38-3.69,4.64-5.76,6.15-3.98,2.92-7.95,6.25-12.48,7.93-9.54,3.54-18.4-.98-20.29-10.95-1.33-7.01-1.13-14.63.01-21.71,2.69-16.66,9.1-32,19.65-45.34,2.65-3.35,5.82-6.49,9.28-8.99,10.37-7.48,21.08-5.78,30.85,4.8.76-1.83,1.53-3.41,2.09-5.06,1.09-3.23,2.55-6.4,6.63-4.63,4.02,1.74,1.95,5.03.97,7.75-5.86,16.29-11.93,32.51-17.58,48.87-2,5.79-3.56,11.85-4.27,17.91-.35,3.02.82,8.1,2.81,9.04,2.56,1.2,7.91.36,9.82-1.69,5.48-5.88,10.11-12.62,14.52-19.39,2.6-4,3.85-8.87,6.31-12.99.92-1.54,3.55-2.07,5.4-3.05.77,1.91,2.71,4.32,2.14,5.67-5.29,12.59-10.45,25.47-21.08,34.65-3.44,2.97-8.34,5.05-12.86,5.81-7.96,1.34-12.89-2.67-15.01-10.54-.33-1.21-.66-2.42-1.16-4.24ZM281.67,133.83c0,1.17-.06,2.33,0,3.5.63,10.12,6.58,13.49,15.08,7.85,4.03-2.67,8.08-6.45,10.17-10.68,7.64-15.48,14.69-31.26,21.44-47.14,2.05-4.82-.35-9.54-4.2-13-3.75-3.36-8.26-3.62-12.6-1.53-2.79,1.34-5.62,3.19-7.62,5.5-13.79,15.9-20.2,34.86-22.28,55.51Z"/>
  <path d="M33.3,309.08c-21.23-.31-32.22-10.14-33.24-25.52-1.02-15.36,11.24-31.43,25.4-33.05,2.59-.3,5.48-.35,7.85.52,1.49.54,2.27,3.02,3.36,4.63-1.59,1.08-3.17,3.09-4.76,3.09-13.71-.02-24.03,10.57-23.51,24.52.45,12.07,12.06,19.96,25.25,17.12,11.2-2.41,18.71-9.98,23.29-19.6,6.41-13.47,11.69-27.52,16.8-41.56,4.83-13.28,8.5-26.98,13.31-40.28,3.01-8.33,7.43-16.11,15.55-20.78,1.95-1.12,4.34-1.96,6.54-1.97,1.41,0,3.85,1.6,3.99,2.72.19,1.5-1.04,4.3-2.26,4.69-8.62,2.75-12.74,9.62-15.46,17.21-5.61,15.65-10.61,31.53-15.81,47.33-4.74,14.41-9.58,28.79-18.22,41.46-7.89,11.57-18.01,19.56-28.08,19.46Z"/>
  <path d="M180.65,199.56c0,3.73-2.88,6.42-6.78,6.34-3.83-.08-6.67-2.91-6.63-6.59.04-3.58,3.13-6.49,6.84-6.44,3.7.04,6.56,2.97,6.56,6.7Z"/>
  <path d="M521.08,28.78c-1.66-1.43-3.14-2.09-3.41-3.08-.33-1.23-.15-3.28.67-4,3.35-2.95,6.93-5.68,10.65-8.13.91-.6,3.13-.3,3.99.45.87.76,1.54,3.38,1.05,3.83-4.06,3.74-8.41,7.17-12.96,10.93Z"/>
  <path d="M507.47,18.25c-3.39-.49-4.65-2.4-3.53-5.3,1.49-3.86,3.16-7.71,5.26-11.26.67-1.13,3.01-1.78,4.52-1.68.82.06,2.39,2.51,2.09,3.29-1.84,4.76-4.07,9.37-6.32,13.96-.28.56-1.42.71-2.03.98Z"/>
  <path d="M527.13,42.75c-.82-.72-3.03-1.78-3.06-2.89-.04-1.51,1.28-3.99,2.57-4.43,3.89-1.32,8.01-2.12,12.11-2.54,1.32-.14,2.83,1.52,4.26,2.36-.93,1.53-1.54,3.94-2.84,4.41-3.88,1.37-8.02,1.97-13.03,3.09Z"/>
</svg>