<?xml version="1.0" encoding="UTF-8"?>
<svg id="Calque_1" xmlns="http://www.w3.org/2000/svg" width="142.99mm" height="90.9mm" viewBox="0 0 405.32 257.68">
  <g>
    <path d="M40.61,227.46c-1.23-8.09-1.86-16.37-1.86-24.8,0-90.53,73.39-163.92,163.92-163.92s163.92,73.39,163.92,163.92c0,9.39-.79,18.59-2.31,27.55" style="fill: none;"/>
    <path d="M6.67,214.34l27.78-1.53-.5-9.04,4.59-.25.76,13.68-32.37,1.79-.26-4.64Z"/>
    <path d="M12.97,173.14l-1.3,12.28,7.75.82,1.26-11.92,4.57.49-1.27,11.92,10.77,1.14,1.3-12.28,4.57.49-1.79,16.9-32.24-3.42,1.79-16.9,4.57.49Z"/>
    <path d="M21.52,139.69l1.19,4.28c-1.43.31-2.43.72-2.99,1.22-.62.51-1.07,1.27-1.37,2.28-.36,1.24-.3,2.37.2,3.41.49,1.03,1.28,1.71,2.38,2.03,1.52.45,3.05-.27,4.61-2.14l2.14-2.57c1.73-2.1,3.49-3.49,5.29-4.16,1.8-.68,3.76-.7,5.9-.07,2.86.84,4.96,2.44,6.29,4.8,1.34,2.38,1.62,4.92.82,7.62-.75,2.56-2.18,4.45-4.27,5.65-2.08,1.17-4.63,1.54-7.65,1.09l.28-4.82c1.89.33,3.25.35,4.1.04,1.61-.52,2.68-1.67,3.2-3.43.41-1.39.26-2.69-.45-3.9-.71-1.21-1.82-2.03-3.32-2.47-.6-.18-1.18-.26-1.73-.25-.55.01-1.09.12-1.61.34-.52.21-1.05.53-1.57.96-.53.43-1.07.96-1.62,1.6l-2.09,2.48c-2.99,3.51-6.22,4.76-9.68,3.74-2.34-.69-4.04-2.11-5.11-4.27-1.08-2.16-1.26-4.51-.51-7.03,1-3.41,3.53-5.55,7.59-6.44Z"/>
    <path d="M42.76,96.79l23.37,15.09-2.52,3.9-23.37-15.09-3.84,5.95-3.86-2.5,10.19-15.78,3.86,2.5-3.83,5.93Z"/>
    <path d="M73.21,80.85l16.62,2.36-3.85,4.18-15.72-2.53-.57.62,9.75,9-3.15,3.42-23.83-21.98,3.69-4c2.76-2.99,5.34-4.61,7.75-4.84,2.67-.25,5.08.62,7.25,2.61,1.69,1.56,2.71,3.35,3.08,5.39.37,2.04.03,3.97-1.02,5.79ZM66.56,82.59l1-1.08c2.98-3.24,3.17-6.05.57-8.45-2.44-2.25-5.11-1.8-8.01,1.35l-1.12,1.22,7.56,6.97Z"/>
    <path d="M94.79,43.86l-9.87,7.42,4.68,6.23,9.58-7.21,2.76,3.67-9.58,7.21,6.51,8.66,9.87-7.42,2.76,3.67-13.58,10.22-19.49-25.91,13.58-10.22,2.76,3.67ZM85.6,34.12l-3.02,9.52-2.94-.23,1.05-9.25,4.91-.04Z"/>
    <path d="M125.03,27.3l-2.31,3.79c-1.21-.83-2.18-1.28-2.93-1.35-.8-.1-1.66.08-2.6.55-1.15.58-1.94,1.4-2.35,2.47-.42,1.06-.37,2.1.14,3.12.71,1.41,2.28,2.05,4.71,1.91l3.34-.2c2.71-.17,4.93.17,6.65,1.02,1.72.85,3.08,2.27,4.08,4.26,1.34,2.66,1.6,5.29.79,7.88-.82,2.6-2.49,4.54-5.01,5.8-2.39,1.2-4.74,1.45-7.04.74-2.28-.72-4.29-2.33-6.03-4.84l3.72-3.09c1.04,1.61,1.97,2.62,2.77,3.03,1.48.82,3.05.82,4.69,0,1.29-.65,2.14-1.65,2.54-2.99.4-1.34.24-2.71-.46-4.12-.28-.56-.62-1.04-1-1.44-.38-.39-.83-.71-1.34-.95-.51-.24-1.11-.4-1.78-.49s-1.43-.12-2.28-.09l-3.24.17c-4.61.22-7.72-1.29-9.34-4.52-1.09-2.18-1.22-4.39-.37-6.65.84-2.27,2.44-4,4.79-5.18,3.17-1.59,6.47-1.21,9.88,1.15Z"/>
    <path d="M143.15,31.68c-1.11-4.43-.52-8.61,1.77-12.56,2.27-3.95,5.57-6.46,9.88-7.54,4.26-1.07,8.31-.38,12.16,2.07,3.86,2.44,6.35,5.91,7.48,10.4,1.13,4.52.56,8.74-1.73,12.66-2.29,3.94-5.62,6.45-9.98,7.54-3.86.96-7.67.43-11.45-1.62-4.16-2.26-6.87-5.91-8.13-10.95ZM147.72,30.6c.87,3.48,2.69,6.06,5.47,7.74,2.77,1.69,5.59,2.17,8.48,1.45,3.13-.78,5.49-2.59,7.08-5.41,1.58-2.85,1.95-5.93,1.12-9.24-.84-3.35-2.61-5.9-5.3-7.63-2.69-1.75-5.59-2.24-8.71-1.46-3.11.78-5.45,2.58-7.02,5.39-1.58,2.79-1.95,5.84-1.12,9.16Z"/>
    <path d="M200.05,24.94l9.87,13.58-5.68.14-9.12-13.05-.84.02.33,13.27-4.65.11-.79-32.41,5.44-.13c4.07-.1,7.03.63,8.87,2.2,2.04,1.74,3.09,4.08,3.17,7.02.06,2.29-.52,4.28-1.73,5.96-1.21,1.68-2.83,2.78-4.87,3.29ZM194.17,21.36l1.48-.04c4.4-.11,6.56-1.93,6.47-5.47-.08-3.32-2.26-4.92-6.54-4.82l-1.66.04.25,10.29Z"/>
    <path d="M242.02,14.98l-4.09,1.73c-.49-1.38-1.03-2.32-1.59-2.8-.59-.55-1.4-.9-2.44-1.07-1.27-.2-2.39,0-3.35.64-.96.61-1.53,1.49-1.71,2.62-.25,1.56.66,3,2.71,4.3l2.83,1.79c2.3,1.44,3.9,3.01,4.81,4.71.9,1.7,1.18,3.64.83,5.84-.47,2.94-1.79,5.23-3.96,6.85-2.19,1.64-4.67,2.23-7.45,1.79-2.64-.42-4.69-1.59-6.15-3.51-1.43-1.91-2.12-4.4-2.07-7.45l4.82-.34c-.09,1.91.07,3.27.48,4.07.73,1.53,1.99,2.44,3.81,2.73,1.43.23,2.7-.09,3.81-.95,1.11-.86,1.78-2.06,2.03-3.61.1-.62.11-1.21.03-1.75-.08-.54-.26-1.06-.54-1.55-.28-.49-.66-.97-1.16-1.44-.49-.47-1.09-.93-1.8-1.4l-2.73-1.75c-3.87-2.51-5.52-5.55-4.95-9.12.38-2.41,1.58-4.28,3.58-5.62,2.01-1.35,4.31-1.82,6.91-1.41,3.51.56,5.96,2.79,7.36,6.7Z"/>
    <path d="M267.57,51.68l14.82-28.83,5.75,2.95c2.75,1.42,4.78,2.82,6.09,4.21,1.43,1.44,2.49,3.19,3.2,5.25,1.43,4.17,1.01,8.46-1.26,12.88-2.28,4.43-5.59,7.26-9.95,8.49-2.18.61-4.22.77-6.12.47-1.79-.24-4.07-1.08-6.85-2.51l-5.68-2.92ZM273.8,49.72l1.86.96c1.86.95,3.51,1.54,4.95,1.76,1.45.2,2.92.08,4.4-.36,3.04-.91,5.36-2.93,6.98-6.07,1.62-3.16,1.94-6.24.94-9.24-.91-2.69-3.12-4.93-6.65-6.74l-1.86-.96-10.61,20.65Z"/>
    <path d="M328.99,58.14l-9.67-7.68-4.84,6.1,9.39,7.46-2.86,3.6-9.39-7.46-6.74,8.48,9.67,7.68-2.86,3.6-13.31-10.57,20.16-25.38,13.31,10.57-2.86,3.6Z"/>
    <path d="M371.11,104.43l-4.81,3.23c.47-3.55-.1-6.52-1.7-8.9-1.76-2.63-4.24-4.17-7.44-4.64-3.19-.48-6.22.23-9.08,2.15-2.82,1.9-4.6,4.4-5.33,7.51-.73,3.11-.21,5.98,1.56,8.61.91,1.36,1.92,2.36,3.02,2.99.59.37,1.27.71,2.05,1.02.78.3,1.66.58,2.63.84l-4.9,3.29c-2.79-1.33-5.01-3.21-6.64-5.63-2.45-3.65-3.2-7.67-2.25-12.06.98-4.39,3.38-7.87,7.21-10.43,3.43-2.3,7.21-3.27,11.34-2.92,5.07.44,9.01,2.77,11.84,6.98,1.54,2.3,2.37,4.96,2.5,7.98Z"/>
    <path d="M365.2,146.51l-4.79-12.28-8.58-.34-1.82-4.67,37.64,1.69-26.77,26.21-1.85-4.74,6.16-5.87ZM368.79,143.07l8.61-8.26-12.01-.46,3.4,8.72Z"/>
    <path d="M378.2,174.62l-12.03,11.71-.95-5.61,11.62-10.89-.14-.83-13.08,2.21-.78-4.58,31.96-5.41.91,5.37c.68,4.01.38,7.04-.91,9.1-1.43,2.26-3.6,3.64-6.5,4.13-2.26.38-4.31.1-6.15-.86s-3.15-2.41-3.95-4.35ZM380.9,168.3l.25,1.46c.73,4.34,2.85,6.21,6.34,5.62,3.27-.55,4.55-2.94,3.83-7.16l-.28-1.63-10.14,1.72Z"/>
    <path d="M383.49,195.26c4.56.22,8.4,1.99,11.52,5.32,3.12,3.32,4.58,7.19,4.37,11.63-.21,4.38-2.04,8.06-5.49,11.04-3.45,2.99-7.49,4.38-12.12,4.16-4.66-.22-8.53-1.99-11.62-5.31-3.11-3.33-4.55-7.24-4.34-11.73.19-3.97,1.81-7.47,4.85-10.49,3.37-3.33,7.64-4.87,12.83-4.62ZM383.21,199.94c-3.58-.17-6.58.83-8.99,3.01-2.42,2.16-3.69,4.73-3.83,7.71-.15,3.23.89,6.01,3.13,8.34,2.27,2.33,5.11,3.58,8.52,3.74,3.45.17,6.4-.79,8.84-2.87,2.45-2.07,3.75-4.71,3.91-7.92.15-3.2-.89-5.96-3.14-8.28-2.22-2.31-5.03-3.55-8.44-3.72Z"/>
  </g>
  <path d="M138.13,162.15h133.52c6.05,0,10.96,4.91,10.96,10.96v40.68c0,24.23-19.67,43.9-43.9,43.9h-68.91c-23.65,0-42.85-19.2-42.85-42.85v-41.5c0-6.17,5.01-11.18,11.18-11.18Z"/>
  <path d="M162.69,162.77v-22.62c0-16.82,14.11-30.46,31.51-30.46h19.75c17.4,0,31.51,13.64,31.51,30.46v22.62" style="fill: none; stroke: #000; stroke-miterlimit: 10; stroke-width: 13px;"/>
  <path d="M244.05,202.66c0,21.69-17.58,39.27-39.27,39.27s-39.27-17.58-39.27-39.27" style="fill: none; stroke: #fff; stroke-linecap: round; stroke-miterlimit: 10; stroke-width: 7px;"/>
  <path d="M152.05,179.41c3.13-1.87,6.79-2.95,10.71-2.95,4.33,0,8.35,1.32,11.69,3.57" style="fill: none; stroke: #fff; stroke-linecap: round; stroke-miterlimit: 10; stroke-width: 7px;"/>
  <g id="BI8WX8">
    <g>
      <path d="M245.11,190.08c2.72-1.88,5.29-3.88,7.41-6.4.78-.92,1.41-1.93,1.78-3.1.67-2.07-.14-4.37-1.97-5.51-1.91-1.2-4.25-.98-5.84.61-.55.55-.99,1.2-1.48,1.81,0,0,0,0-.02-.01-.06-.11-.11-.22-.16-.33-.91-1.67-2.26-2.65-4.2-2.78-2.63-.18-5,1.99-5.03,4.62-.02,1.5.58,2.79,1.44,3.95,2.18,2.94,5.08,5.07,8.05,7.14Z" style="fill: #fff;"/>
      <path d="M245.11,190.08c-2.97-2.08-5.87-4.2-8.05-7.14-.86-1.17-1.46-2.45-1.44-3.95.03-2.63,2.4-4.8,5.03-4.62,1.94.13,3.29,1.11,4.2,2.78.06.11.11.22.16.33,0,.01.03.02.02.01.49-.61.93-1.26,1.48-1.81,1.59-1.59,3.92-1.81,5.84-.61,1.83,1.14,2.63,3.44,1.97,5.51-.38,1.16-1.01,2.17-1.78,3.1-2.12,2.52-4.7,4.52-7.41,6.4Z" style="fill: #fff;"/>
    </g>
  </g>
</svg>