<?xml version="1.0" encoding="UTF-8"?>
<svg id="Calque_1" xmlns="http://www.w3.org/2000/svg" width="161.91mm" height="161.91mm" viewBox="0 0 458.95 458.95">
  <circle cx="229.48" cy="229.48" r="229.48"/>
  <g>
    <path d="M168.68,298.88c-18.94,0-33.98-5.69-44.72-16.91-18.17-18.98-17.44-46.84-17.37-48.82v-107.08h6.12v107.28c-.01.27-.94,27.08,15.7,44.43,9.54,9.95,23.09,14.99,40.27,14.99s30.69-5.04,40.07-14.97c16.32-17.27,15.01-43.92,14.99-44.19v-.17s-.32-106.47-.32-106.47h85.35v6.12h-79.21l.3,100.26c.11,2.13,1.18,29.74-16.62,48.62-10.59,11.23-25.58,16.92-44.55,16.92Z" style="fill: #fff;"/>
    <path d="M347.99,178.92h-6.12s-.29-14.93-6.26-29.63-26.85-16.21-26.85-16.21v-6.12h39.22v51.96Z" style="fill: #fff;"/>
    <path d="M352.39,245.37h-6.12s-.29,14.93-6.26,29.63-26.85,16.21-26.85,16.21h-41.59v6.12s41.59,0,41.59,0h39.22v-51.96Z" style="fill: #fff;"/>
    <rect x="341.87" y="172.81" width="6.12" height="6.12" style="fill: #fff;"/>
    <path d="M301.14,222.01c9.54,9.54,9.96,25.84,9.96,25.84h6.97v-70.08h-8.14s-1.06,16.16-10.28,25.38c-9.22,9.22-29.22,5.16-29.22,5.16v7.91s21.17-3.74,30.7,5.79Z" style="fill: #fff;"/>
  </g>
  <g>
    <circle cx="229.48" cy="229.48" r="165.28" style="fill: none;"/>
    <path d="M129.6,56.29l9.84,18.87c1.16,2.22,2.54,3.84,4.14,4.87,2.4,1.57,5.07,1.58,8.02.05,3.53-1.84,5.31-4.29,5.33-7.35,0-1.66-.57-3.59-1.71-5.79l-9.84-18.87,4.18-2.18,8.94,17.15c1.96,3.76,2.96,6.91,3,9.46.06,4.66-2.5,8.33-7.67,11.03s-9.64,2.68-13.41-.04c-2.07-1.49-4.08-4.12-6.04-7.87l-8.94-17.15,4.18-2.18Z" style="fill: #fff;"/>
    <path d="M172.19,37.66l15.26-3.47c2.51-.57,4.67-.67,6.47-.3,3.42.73,5.57,3.02,6.45,6.87.46,2.01.42,3.75-.12,5.22s-1.47,2.76-2.78,3.88c1.43.24,2.58.71,3.44,1.43s1.55,2.04,2.07,3.98l1.19,4.46c.34,1.27.66,2.2.97,2.78.52,1,1.16,1.58,1.93,1.72l.17.75-5.58,1.27c-.22-.25-.43-.6-.62-1.04s-.47-1.3-.83-2.6l-1.55-5.54c-.6-2.17-1.73-3.46-3.38-3.87-.94-.22-2.31-.12-4.12.29l-10.06,2.29,3.28,14.4-4.55,1.04-7.65-33.57ZM190.46,49.68c2.07-.47,3.62-1.27,4.63-2.4,1.01-1.13,1.27-2.8.76-5.03-.54-2.39-1.76-3.83-3.65-4.31-1.01-.25-2.27-.21-3.78.14l-10.8,2.46,2.61,11.47,10.22-2.33Z" style="fill: #fff;"/>
    <path d="M221.51,29.54l14.88.33c4.06.09,6.92,1.36,8.58,3.8.97,1.44,1.44,3.1,1.4,4.95-.05,2.17-.71,3.94-1.97,5.3-.66.72-1.59,1.37-2.81,1.95,1.75.71,3.05,1.5,3.91,2.36,1.51,1.53,2.24,3.62,2.18,6.26-.05,2.22-.79,4.21-2.23,5.98-2.15,2.64-5.5,3.91-10.06,3.81l-14.64-.32.76-34.42ZM235.55,60.31c2.89.06,4.96-.72,6.23-2.35.8-1.03,1.21-2.29,1.24-3.77.05-2.5-1.04-4.23-3.27-5.18-1.19-.51-2.77-.79-4.74-.83l-9.34-.21-.27,12.11,10.15.23ZM234.33,44.38c1.99.04,3.54-.19,4.66-.72,1.75-.82,2.66-2.35,2.71-4.58.05-2.25-.84-3.78-2.67-4.61-1.03-.46-2.58-.71-4.63-.76l-8.41-.19-.24,10.66,8.57.19Z" style="fill: #fff;"/>
    <path d="M279.04,35.96l5.09,1.37,3.15,36.49-4.93-1.32-.7-10.87-13.15-3.53-6.27,9-4.62-1.24,21.44-29.9ZM281.18,57.57l-1.11-16.04-9.3,13.25,10.41,2.79Z" style="fill: #fff;"/>
    <path d="M315.08,48.48l4.79,2.69,1.38,32.66,13.6-24.27,3.88,2.18-16.83,30.03-4.57-2.56-1.61-32.76-13.58,24.24-3.88-2.18,16.83-30.03Z" style="fill: #fff;"/>
  </g>
  <g>
    <circle cx="229.48" cy="229.48" r="191.13" style="fill: none;"/>
    <path d="M86.99,356.43l2.62,2.6,19.54-19.72-2.62-2.6.46-.47,16.41,16.26s-3.1,1.82-6.7,4.95l-.47-.46,2.73-2.75c1.64-1.66,2.01-3.21.41-4.79l-5.47-5.42-9.66,9.75,4.69,4.65,2.73-2.75.47.46-6.19,6.25-.47-.46,3-3.03-4.69-4.65-9.42,9.5,5.62,5.58c1.97,1.95,4.82.26,8.67-2.75l.5.5s-3.29,2.38-6.6,5.72l-16.03-15.89.46-.47Z" style="fill: #fff;"/>
    <path d="M115,382.32l1.22.79c1.15.74,2,.4,4.07-.47l10.57-4.39.51-18.41-2.7-1.74.36-.55,11.87,7.65-.36.55-2.92-1.88-.26,12.5,9.29-3.85c1.49-.61,1.51-1.85-.19-2.95l-.92-.6.36-.55,6.84,4.41-.36.55-1.22-.79c-1.15-.74-2-.4-4.07.47l-9.73,4.04-.39,19.38,2.37,1.53-.36.55-11.73-7.56.36-.55,2.92,1.88.33-13.34-10.14,4.2c-1.49.61-1.51,1.85.19,2.95l.92.6-.36.55-6.84-4.41.36-.55Z" style="fill: #fff;"/>
    <path d="M175.01,404.09c-1.17,3.04-5.29,7.58-12.22,4.9-8.33-3.22-11.16-10.68-7.89-19.13,3.14-8.13,10.51-11.7,18.92-8.45,2.54.98,4.13,2.49,5.03,4.07,1.36.76,2.6.34,3.31-.51l.53.21s-2.25,3.52-3,5.45l-1.05,2.71-.62-.24.6-1.56c1.52-3.94-.67-7.8-5.06-9.5-5.95-2.3-9.62,4.02-12.16,10.59-2.76,7.14-3.84,13.61,1.82,15.8,1.81.7,3.62.88,5.21.55,2.83-.61,4.98-2.75,5.9-5.13l.66.25Z" style="fill: #fff;"/>
    <path d="M187.2,416.01l3.66.49,3.68-27.52-3.66-.49.09-.65,13.96,1.87-.09.65-3.66-.49-1.78,13.34,13,1.74,1.78-13.34-3.66-.49.09-.65,13.96,1.87-.09.65-3.66-.49-3.68,27.52,3.66.49-.09.65-13.96-1.87.09-.65,3.66.49,1.81-13.52-13-1.74-1.81,13.52,3.66.49-.09.65-13.96-1.87.09-.65Z" style="fill: #fff;"/>
    <path d="M234.07,420.47l.88-.09c1.36-.14,2.04-.87,2.59-2.87l7.3-26.78,1.84-.19,14.46,27.2,2.15-.22.07.66-12.13,1.22-.07-.66,3.06-.31-4.59-8.65-9.59.97-1.8,6.68c-.45,1.64.61,2.55,2.62,2.34l1.31-.13.07.66-8.1.82-.07-.66ZM249.29,409.16l-5.83-10.91-3.23,11.82,9.06-.91Z" style="fill: #fff;"/>
    <path d="M276.53,414.65l1.25-.42c1.83-.62,2.19-1.76,1.66-3.34l-7.16-21.32-.61-.44c-1.21-.85-2.27-1.37-3.65-.91l-.75.25-.21-.63,9.47-3.18,20.61,14.11-5.29-15.77c-.53-1.58-1.51-2.28-3.34-1.66l-1.25.42-.21-.63,8.13-2.73.21.63-1.29.43c-1.83.62-2.15,1.74-1.62,3.33l8.24,24.53-1.75.59-25.77-17.71,6.88,20.48c.53,1.58,1.47,2.29,3.3,1.68l1.29-.43.21.63-8.14,2.73-.21-.63Z" style="fill: #fff;"/>
    <path d="M328.48,379.68l-3.53,2.16-.34-.56,10.84-6.65.35.56-2.21,1.36,5.94,9.68-.56.35c-.49-.37-1.62-1.12-2.82-.9-.6,1.97-2.19,4.34-5.9,6.62-7.5,4.6-15.08,2.59-19.89-5.25-4.65-7.58-3.03-15.54,5.07-20.51,2.17-1.33,4.42-1.88,6.49-1.71,1.59-.61,1.98-1.99,1.77-3l.49-.3c.59,1.81,1.84,4.6,2.69,5.99l1.33,2.17-.56.35-.88-1.43c-2.16-3.53-6.68-4.16-11-1.51-4.61,2.83-4.33,8.18.78,16.5,4.95,8.06,9,10.89,13.32,8.25,3.04-1.86,3.3-4.55,1.69-7.18l-3.06-4.99Z" style="fill: #fff;"/>
    <path d="M352.39,375.46l2.67-2.55-19.17-20.08-2.67,2.55-.46-.48,16.71-15.95s1.73,3.15,4.76,6.83l-.48.46-2.67-2.8c-1.61-1.69-3.16-2.1-4.78-.55l-5.57,5.32,9.48,9.93,4.78-4.56-2.67-2.8.48-.46,6.08,6.37-.48.46-2.95-3.09-4.77,4.56,9.24,9.68,5.73-5.47c2.01-1.91.39-4.81-2.5-8.74l.51-.49s2.29,3.35,5.54,6.76l-16.33,15.58-.46-.48Z" style="fill: #fff;"/>
  </g>
</svg>