<?xml version="1.0" encoding="UTF-8"?>
<svg id="Calque_1" xmlns="http://www.w3.org/2000/svg" width="839.37" height="257.56" viewBox="0 0 839.37 257.56">
  <path d="M159.89,141.31c-4.23,1.31-8.83,3.1-13.6,4.13-6.26,1.35-12.63,2.18-18.98,3.04-1.89.26-2.98.72-3.48,2.75-2.64,10.58-5.49,21.11-8.1,31.69-.65,2.63-.63,5.43-.92,8.13-3.3-.09-6.09-2.73-5.77-6.02.51-5.2,1.28-10.4,2.44-15.49,1.59-6.95,3.66-13.8,5.49-20.6-6.26-1.1-12.45-1.93-18.51-3.3-6.89-1.56-13.67-3.56-20.48-5.46-1.66-.46-2.85-.2-3.9,1.2-4.45,5.94-8.75,12-13.48,17.71-5.41,6.52-10.36,13.59-17.61,18.32-2.97,1.93-6.18,3.69-9.52,4.82-7.46,2.51-14.14.35-18.82-6.01-4.57-6.2-6.41-13.27-5.43-20.98.09-.73.17-1.68.63-2.11.85-.78,1.98-1.25,3-1.85.32.94.96,1.91.91,2.83-.36,6.43.28,12.68,3.28,18.48.91,1.75,2.11,3.41,3.44,4.88,2.6,2.86,5.82,3.51,9.57,2.49,8.72-2.37,15.12-8.12,20.75-14.66,6.88-8.01,13.24-16.47,19.81-24.75.5-.64.88-1.37,1.55-2.43-2.82-1.08-5.4-2.11-8.01-3.08-8.11-3-16.03-6.65-24.7-7.79-11.82-1.55-23.09-.02-33.43,6.36-1.27.78-2.62,1.47-4,2.01-.58.23-1.35-.04-2.03-.08.07-.75-.14-1.72.25-2.22,3.06-3.94,7.31-6.34,11.79-8.15,11.99-4.84,24.01-3.82,35.87.58,7.33,2.71,14.56,5.68,21.82,8.57,3.66,1.46,4.12,1.46,6.28-1.99,9.46-15.09,18.74-30.29,28.27-45.32,11.63-18.35,23.35-36.65,35.24-54.84,5.28-8.08,10.97-15.9,16.62-23.73,1.84-2.56,3.97-4.96,6.26-7.13,2.7-2.57,7.03-1.1,7.07,2.64.06,5.18-.13,10.61-1.58,15.52-4.19,14.2-8.96,28.24-13.7,42.28-6.89,20.42-13.95,40.79-20.93,61.18-2.31,6.76-4.59,13.54-6.88,20.31-.23.69-.43,1.38-.71,2.3,6.15.22,11.92-.52,17.57-2.03,4.91-1.31,9.73-2.95,14.65-4.2,1.92-.49,2.27-1.42,2.21-3.14-.21-6.3,1.69-11.97,5.5-16.97,4.82-6.32,9.66-6.8,15.65-1.63.31.27.65.5,1.22.94,3.23-3.43,6.56-6.7,9.57-10.24,5.13-6.02,10.71-11.8,14.87-18.45,3.51-5.61,5.28-12.32,7.79-18.55,3.2-7.93,6.36-15.88,9.56-23.81.31-.77.69-1.52,1.14-2.22.8-1.25,1.48-2.64,3.49-2.04,2.03.61,3.38,1.73,2.94,3.9-.96,4.63-1.55,9.46-3.37,13.76-3.14,7.41-6.76,14.67-10.8,21.64-4.26,7.35-7.23,15.16-9.9,23.13-5.01,14.92-9.88,29.88-14.81,44.83-.18.54-.34,1.09-.63,2.05,2.94-.54,5.63-.86,8.23-1.53,20.08-5.14,40.13-10.35,60.2-15.52,1.49-.38,2.2-1.07,2.11-2.77-.32-6.28,2.01-11.71,5.58-16.72,3.36-4.71,10.14-7.52,15.23-1.47.35.42.92.66,1.55,1.1,8.45-9.31,17.73-17.86,24.41-28.51,2.87-4.58,4.4-10.01,6.44-15.09,3.45-8.65,6.79-17.34,10.24-25.99.58-1.46,1.34-2.9,2.29-4.13.68-.88,2.2-2.17,2.68-1.93,1.28.63,3.03,1.95,3.09,3.07.19,3.28-.13,6.64-.67,9.9-1.2,7.27-4.13,13.79-8.63,19.69-7.6,9.96-11.84,21.53-15.64,33.31-4.32,13.4-8.81,26.74-13.22,40.11-.35,1.07-.62,2.16-1.09,3.82,8.69-2.06,16.91-3.74,24.98-5.97,17.9-4.93,35.76-10.01,53.56-15.27,10.08-2.98,20.19-3.95,30.27-.83,9.44,2.92,18.11,7.61,25.68,14.01,14.31,12.1,30.57,20.35,48.57,25.29,11.79,3.23,23.75,5.47,36.03,5.02,8.17-.3,16.34-.87,24.48-1.66,13.28-1.29,26.54-2.7,39.78-4.35,12.4-1.55,24.74-3.56,37.13-5.25,8.51-1.16,17.05-2.12,25.57-3.15,8.11-.98,16.22-2.03,24.34-2.86,5.23-.54,10.48-.96,15.74-1.05,10.51-.19,21.04-.56,31.53-.05,15.08.73,30.01,2.96,44.76,6.23,17.48,3.87,34.09,10.12,49.89,18.51.59.31,1.41.6,1.61,1.11.37.93.52,2.04.38,3.02-.04.28-1.46.68-2.12.51-3.3-.83-6.6-1.7-9.83-2.79-14.79-4.99-29.88-8.83-45.24-11.46-9.93-1.7-19.99-2.99-30.04-3.63-12.82-.82-25.71-1.28-38.55-.99-13.08.3-26.17,1.39-39.2,2.7-15.44,1.56-30.81,3.72-46.22,5.62-11.68,1.43-23.35,2.91-35.03,4.26-19.53,2.27-39.15,3.81-58.75,2.09-28.57-2.51-54.42-12.23-76.81-30.72-5.97-4.93-12.92-8.82-19.78-12.51-5.96-3.21-12.76-2.92-19.37-2.52-14.99.9-29.31,5.07-43.73,8.85-13.58,3.56-27.27,6.73-40.92,10.04-2.5.61-5.02,1.21-7.56,1.65-2.26.38-3.35,1.65-4.07,3.77-5.74,16.88-11.5,33.75-17.4,50.57-4.58,13.03-9.36,25.99-14.08,38.97-.4,1.09-.9,2.16-1.45,3.19-.59,1.12-.96,2.73-2.85,1.92-1.79-.76-3.21-1.61-2.35-4.1,2.2-6.36,4.18-12.8,6.33-19.18,5.08-15.04,10.59-29.94,15.17-45.12,2.68-8.88,3.89-18.2,5.76-27.33.31-1.49-.45-1.95-1.78-2.37-5.81-1.86-11.23-4.39-14.34-10.07-.94-1.72-1.48-3.66-2.21-5.5-9.06,2.58-18.03,5.31-27.1,7.68-14.37,3.76-28.79,7.33-43.22,10.85-1.74.42-2.49,1.22-3.02,2.79-8.36,24.49-16.7,49-25.21,73.44-2.35,6.75-5.25,13.32-7.96,19.95-.45,1.11-.67,2.83-2.68,2.11-2.55-.91-3.29-2.2-2.51-4.49,3.98-11.71,7.92-23.44,12-35.12,4.79-13.72,9.92-27.33,12.55-41.7.87-4.74,1.69-9.49,2.63-14.22.35-1.75-.45-2.35-1.95-2.82-4.58-1.42-9.06-3.23-12-7.2-1.88-2.54-3.14-5.55-4.68-8.36ZM77.1,137c3.52,1.03,6.53,1.91,9.54,2.78,8.57,2.47,17.2,4.69,26.15,5.24,5.54.34,5.37.19,7.25-5.14,7.47-21.21,14.9-42.43,22.66-63.54,7.48-20.34,15.23-40.59,21.12-61.47,1.02-3.6,1.44-7.37,2.14-11.07-.34-.18-.69-.36-1.03-.55-1.49,1.47-3.15,2.79-4.42,4.43-3.16,4.08-6.3,8.2-9.17,12.49-11.32,16.86-22.84,33.59-33.72,50.73-11.78,18.56-22.92,37.53-34.36,56.3-1.9,3.11-3.87,6.18-6.15,9.79ZM286.76,149.95c.25.14.5.28.75.42.66-.97,1.56-1.86,1.94-2.93,4.42-12.42,8.77-24.87,13.12-37.31.92-2.63,1.78-5.28,2.81-8.33-.72.34-.99.39-1.13.54-5.07,5.41-10.23,10.74-15.1,16.33-1.11,1.28-1.64,3.43-1.7,5.19-.19,6.48-.01,12.98-.09,19.46-.03,2.21-.4,4.41-.61,6.62ZM202.45,105.25c-.21-.08-.41-.16-.62-.25-.27.18-.58.32-.79.55-4.74,5.15-9.46,10.32-14.21,15.47-1.73,1.87-2.38,3.95-2.31,6.57.19,6.57.08,13.16,0,19.74-.02,1.94-.34,3.87-.52,5.8.29.13.58.25.87.38.56-.83,1.33-1.58,1.66-2.5,4.29-12.13,8.52-24.29,12.75-36.44,1.08-3.1,2.12-6.22,3.17-9.33ZM283.83,124.87c-1.53.66-2.24.85-2.83,1.23-3.74,2.46-7.42,5.03-11.2,7.42-1.79,1.13-2.09,2.78-1.88,4.54.83,6.96,5.35,10.73,11.56,12.47,1.36.38,2.43-.06,2.56-1.8.55-7.7,1.15-15.4,1.78-23.86ZM180.64,127.7c-5.29,3.43-9.92,6.35-14.43,9.45-.65.45-1.06,1.72-1.05,2.6.07,7.81,5.11,11.78,11,13.69,1.65.53,2.87.34,3.02-1.9.41-6.14.99-12.27,1.45-18.41.12-1.6.02-3.21.02-5.43ZM269.08,127.81c.23.24.46.49.69.73,3.88-3.2,7.78-6.39,11.61-9.65.29-.25.31-1.06.17-1.53-1.08-3.66-3.61-4.35-6.43-1.61-3.41,3.3-4.86,7.63-6.05,12.06ZM166.11,130.88c.21.26.43.52.64.77,3.79-3.06,7.61-6.1,11.36-9.22.43-.35.78-1.3.61-1.77-.42-1.18-.91-2.75-1.84-3.2-.89-.43-2.65-.02-3.54.66-4.19,3.2-5.7,8-7.21,12.76Z"/>
  <g>
    <path d="M349.9,226.36l2.18,5.12,2.24,5.28,2.37,5.47c1.34,3.17,1.66,3.87,2.4,5.44-.67-.1-1.02-.13-1.66-.13s-.96.03-1.54.13c-.58-1.66-2.34-6.18-3.33-8.45h-.58l-3.65-.03s-3.1.03-3.84.06c-.77,1.86-1.38,3.33-1.63,4.06-.03.03-.67,1.95-1.5,4.35-.54-.1-.8-.13-1.09-.13-.32,0-.54.03-1.18.13.67-1.31,1.15-2.34,2.5-5.28.8-1.82,1.63-3.65,2.46-5.54.83-1.76,1.6-3.46,2.4-5.31.74-1.63,1.5-3.36,2.27-5.09l.32-.67h.64l.22.58ZM348.4,230.33l-1.6,3.55-1.54,3.58-.19.45c1.47.03,2.08.03,3.68.03,1.41,0,2.18,0,3.26-.03l-.16-.45c-.51-1.18-1.02-2.4-1.5-3.58-.58-1.34-1.06-2.43-1.76-3.97l-.19.42Z"/>
    <path d="M376.18,237.53c.03,5.86.1,8.67.26,10.14-.7-.1-1.09-.13-1.54-.13s-.83.03-1.6.13c.19-2.11.35-8.42.35-13.95,0-2.18-.13-6.21-.22-7.65q.93.1,2.14.1h.9l2.69.03c2.21-.03,3.49-.03,3.94-.03.67,0,.8-.03,1.54-.1-.06.45-.1.67-.1.93,0,.22.03.45.1.93-1.79-.16-4.93-.32-7.07-.32-.32,0-.61,0-1.12.03-.03.29-.06,1.54-.16,3.74q-.1,3.07-.1,3.49c0,.06,0,.38.03.67.51.03.7.03,1.15.03,2.33,0,5.25-.13,6.53-.29-.1.48-.13.74-.13,1.02,0,.32.03.51.13.86-1.63-.16-3.81-.26-6.37-.26-.38,0-.74,0-1.34.03v.58Z"/>
    <path d="M401.9,237.53c.03,5.86.1,8.67.26,10.14-.7-.1-1.09-.13-1.54-.13s-.83.03-1.6.13c.19-2.11.35-8.42.35-13.95,0-2.18-.13-6.21-.22-7.65q.93.1,2.14.1h.9l2.69.03c2.21-.03,3.49-.03,3.94-.03.67,0,.8-.03,1.54-.1-.06.45-.1.67-.1.93,0,.22.03.45.1.93-1.79-.16-4.93-.32-7.07-.32-.32,0-.61,0-1.12.03-.03.29-.06,1.54-.16,3.74q-.1,3.07-.1,3.49c0,.06,0,.38.03.67.51.03.7.03,1.15.03,2.33,0,5.25-.13,6.53-.29-.1.48-.13.74-.13,1.02,0,.32.03.51.13.86-1.63-.16-3.81-.26-6.37-.26-.38,0-.74,0-1.34.03v.58Z"/>
    <path d="M431.82,226.36l2.18,5.12,2.24,5.28,2.37,5.47c1.34,3.17,1.66,3.87,2.4,5.44-.67-.1-1.02-.13-1.66-.13s-.96.03-1.54.13c-.58-1.66-2.34-6.18-3.33-8.45h-.58l-3.65-.03s-3.1.03-3.84.06c-.77,1.86-1.38,3.33-1.63,4.06-.03.03-.67,1.95-1.5,4.35-.54-.1-.8-.13-1.09-.13-.32,0-.54.03-1.18.13.67-1.31,1.15-2.34,2.5-5.28.8-1.82,1.63-3.65,2.46-5.54.83-1.76,1.6-3.46,2.4-5.31.74-1.63,1.5-3.36,2.27-5.09l.32-.67h.64l.22.58ZM430.32,230.33l-1.6,3.55-1.54,3.58-.19.45c1.47.03,2.08.03,3.68.03,1.41,0,2.18,0,3.26-.03l-.16-.45c-.51-1.18-1.02-2.4-1.5-3.58-.58-1.34-1.06-2.43-1.76-3.97l-.19.42Z"/>
    <path d="M456.78,226.2c.58,0,.93-.03,1.57-.13-.19,2.24-.32,6.05-.32,9.76,0,5.44.1,9.41.32,11.84-.77-.1-1.15-.13-1.6-.13-.48,0-.83.03-1.54.13.19-2.53.29-6.43.29-12.45,0-3.55-.13-7.17-.29-9.15.64.1.99.13,1.57.13Z"/>
    <path d="M477.46,237.18c0,4.38.13,8.99.29,10.5-.77-.1-1.15-.13-1.66-.13s-.86.03-1.47.13c.19-2.88.32-7.29.32-11.62s-.1-7.46-.32-9.98c1.02.1,1.6.13,2.56.13.54,0,1.31-.03,2.21-.06,1.12-.03,2.11-.06,2.56-.06,2.05,0,3.36.29,4.45.96,1.25.8,2.02,2.27,2.02,3.9,0,2.14-1.18,3.94-3.3,4.99-.83.45-1.7.7-3.2.99l.32.38,2.05,2.62c4.06,5.18,4.96,6.27,6.4,7.74-.96-.1-1.44-.13-2.02-.13-.61,0-1.02.03-1.79.13l-.32-.45c-3.74-5.12-6.88-9.15-7.87-10.05h-1.22ZM479.25,236.09c4,0,6.27-1.73,6.27-4.83,0-2.66-1.76-4.1-5.06-4.1-.86,0-1.73.06-2.82.22-.13,2.75-.19,4.35-.19,8.58.67.1,1.18.13,1.79.13Z"/>
    <path d="M515.95,247.64q-3.71-.1-4.42-.1c-1.86,0-5.73.06-6.59.13.22-2.18.35-7.2.35-12.51,0-4.1-.1-7.33-.22-9.09,1.02.1,1.06.1,5.73.13l2.59-.03c1.76,0,2.27-.03,2.88-.1-.06.45-.1.67-.1.93,0,.22.03.45.1.93-1.76-.19-4.86-.32-7.13-.32-.35,0-.64,0-1.06.03-.03.22-.06,1.47-.16,3.74q-.1,3.07-.1,3.52c0,.06,0,.35.03.64.45.03.64.03,1.15.03,2.4,0,5.31-.13,6.53-.29-.1.48-.13.74-.13,1.02,0,.32.03.51.13.86-1.34-.13-3.78-.22-6.59-.22-.42,0-.67,0-1.12.03v.54l.03,1.6v2.37c0,.64,0,1.44.03,2.34.03.99.06,1.63.06,1.79v.51c.45.03.74.03,1.12.03,2.62,0,5.95-.19,7.36-.42-.06.42-.1.64-.1.96,0,.35.03.54.1.96l-.48-.03Z"/>
    <path d="M541.45,229.78c-.61-1.76-2.18-2.88-4-2.88-2.24,0-3.94,1.66-3.94,3.84,0,1.12.51,2.21,1.41,2.88.77.54,1.73,1.06,3.62,1.82,2.14.9,2.75,1.25,3.52,2.02.96.93,1.44,2.14,1.44,3.62,0,3.97-3.3,7.01-7.58,7.01-2.05,0-3.9-.61-5.38-1.79.45-1.38.54-1.89.64-2.85h.32c.86,1.92,2.91,3.23,4.99,3.23,2.59,0,4.51-1.89,4.51-4.51,0-1.12-.38-2.02-1.12-2.72-.77-.7-1.25-.96-3.49-1.89-3.87-1.6-5.31-3.2-5.31-5.95,0-3.55,2.75-5.95,6.75-5.95,1.86,0,3.26.45,4.8,1.5-.38.83-.7,1.86-.86,2.62h-.32Z"/>
    <path d="M586.35,226.36l2.18,5.12,2.24,5.28,2.37,5.47c1.34,3.17,1.66,3.87,2.4,5.44-.67-.1-1.02-.13-1.66-.13s-.96.03-1.54.13c-.58-1.66-2.34-6.18-3.33-8.45h-.58l-3.65-.03s-3.1.03-3.84.06c-.77,1.86-1.38,3.33-1.63,4.06-.03.03-.67,1.95-1.5,4.35-.54-.1-.8-.13-1.09-.13-.32,0-.54.03-1.18.13.67-1.31,1.15-2.34,2.5-5.28.8-1.82,1.63-3.65,2.46-5.54.83-1.76,1.6-3.46,2.4-5.31.74-1.63,1.5-3.36,2.27-5.09l.32-.67h.64l.22.58ZM586.83,223.55l-5.06-2.91c-.83-.48-1.18-.9-1.18-1.44s.48-.99,1.09-.99c.54,0,.86.19,2.08,1.34l4.29,4h-1.22ZM584.85,230.33l-1.6,3.55-1.54,3.58-.19.45c1.47.03,2.08.03,3.68.03,1.41,0,2.18,0,3.26-.03l-.16-.45c-.51-1.18-1.02-2.4-1.5-3.58-.58-1.34-1.06-2.43-1.76-3.97l-.19.42Z"/>
    <path d="M638.48,229.78c-.61-1.76-2.18-2.88-4-2.88-2.24,0-3.94,1.66-3.94,3.84,0,1.12.51,2.21,1.41,2.88.77.54,1.73,1.06,3.62,1.82,2.14.9,2.75,1.25,3.52,2.02.96.93,1.44,2.14,1.44,3.62,0,3.97-3.3,7.01-7.58,7.01-2.05,0-3.9-.61-5.38-1.79.45-1.38.54-1.89.64-2.85h.32c.86,1.92,2.91,3.23,4.99,3.23,2.59,0,4.51-1.89,4.51-4.51,0-1.12-.38-2.02-1.12-2.72-.77-.7-1.25-.96-3.49-1.89-3.87-1.6-5.31-3.2-5.31-5.95,0-3.55,2.75-5.95,6.75-5.95,1.86,0,3.26.45,4.8,1.5-.38.83-.7,1.86-.86,2.62h-.32Z"/>
    <path d="M657.26,226.2c.54,0,.9-.03,1.57-.13-.26,2.43-.45,7.23-.45,11.3,0,3.49.26,4.99,1.06,6.33,1.18,1.98,3.04,2.91,5.7,2.91,3.39,0,5.86-1.7,6.59-4.45.42-1.66.51-3.33.51-8.8,0-4.03-.03-4.96-.19-7.3.86.13.99.13,1.25.13.32,0,.58-.03,1.09-.13-.19,1.15-.45,6.3-.51,9.57-.1,3.81-.13,4.42-.32,5.57-.42,2.43-1.31,4-3.04,5.25-1.47,1.06-3.52,1.63-5.86,1.63-2.78,0-5.18-.77-6.75-2.18-1.57-1.44-2.18-3.17-2.18-6.34,0-.38.03-2.5.1-4.64.03-1.06.03-1.95.03-2.82,0-2.24-.06-4.58-.16-6.05.67.1,1.06.13,1.57.13Z"/>
    <path d="M691.89,226.2c.58,0,.93-.03,1.57-.13-.19,2.24-.32,6.05-.32,9.76,0,5.44.1,9.41.32,11.84-.77-.1-1.15-.13-1.6-.13-.48,0-.83.03-1.54.13.19-2.53.29-6.43.29-12.45,0-3.55-.13-7.17-.29-9.15.64.1.99.13,1.57.13Z"/>
    <path d="M711.12,227c2.37,6.59,2.85,7.78,6.78,17.31,2.05-4.61,6.46-16,7.04-18.24.64.1.9.13,1.18.13s.54-.03,1.15-.13c-1.63,3.62-3.65,8.32-6.08,14.08-2.18,5.22-2.24,5.38-2.98,7.52-.51-.1-.7-.13-.93-.13s-.42.03-.96.13l-.22-.58c-1.98-5.15-2.14-5.6-2.59-6.72-.42-1.02-.9-2.21-1.44-3.49l-1.44-3.39-1.41-3.42-1.31-3.17-.35-.83c.64.1.99.13,1.7.13.64,0,.96-.03,1.54-.13l.32.93Z"/>
    <path d="M744.17,237.18c0,4.38.13,8.99.29,10.5-.77-.1-1.15-.13-1.66-.13s-.86.03-1.47.13c.19-2.88.32-7.29.32-11.62s-.1-7.46-.32-9.98c1.02.1,1.6.13,2.56.13.54,0,1.31-.03,2.21-.06,1.12-.03,2.11-.06,2.56-.06,2.05,0,3.36.29,4.45.96,1.25.8,2.02,2.27,2.02,3.9,0,2.14-1.18,3.94-3.3,4.99-.83.45-1.7.7-3.2.99l.32.38,2.05,2.62c4.06,5.18,4.96,6.27,6.4,7.74-.96-.1-1.44-.13-2.02-.13-.61,0-1.02.03-1.79.13l-.32-.45c-3.74-5.12-6.88-9.15-7.87-10.05h-1.22ZM745.96,236.09c4,0,6.27-1.73,6.27-4.83,0-2.66-1.76-4.1-5.06-4.1-.86,0-1.73.06-2.82.22-.13,2.75-.19,4.35-.19,8.58.67.1,1.18.13,1.79.13Z"/>
    <path d="M782.67,247.64q-3.71-.1-4.42-.1c-1.86,0-5.73.06-6.59.13.22-2.18.35-7.2.35-12.51,0-4.1-.1-7.33-.22-9.09,1.02.1,1.06.1,5.73.13l2.59-.03c1.76,0,2.27-.03,2.88-.1-.06.45-.1.67-.1.93,0,.22.03.45.1.93-1.76-.19-4.86-.32-7.13-.32-.35,0-.64,0-1.06.03-.03.22-.06,1.47-.16,3.74q-.1,3.07-.1,3.52c0,.06,0,.35.03.64.45.03.64.03,1.15.03,2.4,0,5.31-.13,6.53-.29-.1.48-.13.74-.13,1.02,0,.32.03.51.13.86-1.34-.13-3.78-.22-6.59-.22-.42,0-.67,0-1.12.03v.54l.03,1.6v2.37c0,.64,0,1.44.03,2.34.03.99.06,1.63.06,1.79v.51c.45.03.74.03,1.12.03,2.62,0,5.95-.19,7.36-.42-.06.42-.1.64-.1.96,0,.35.03.54.1.96l-.48-.03Z"/>
    <path d="M800.91,246.07c0,1.02-.8,1.79-1.82,1.79-.96,0-1.73-.83-1.73-1.82,0-.93.8-1.73,1.79-1.73s1.76.8,1.76,1.76Z"/>
    <path d="M819.18,246.07c0,1.02-.8,1.79-1.82,1.79-.96,0-1.73-.83-1.73-1.82,0-.93.8-1.73,1.79-1.73s1.76.8,1.76,1.76Z"/>
    <path d="M837.45,246.07c0,1.02-.8,1.79-1.82,1.79-.96,0-1.73-.83-1.73-1.82,0-.93.8-1.73,1.79-1.73s1.76.8,1.76,1.76Z"/>
  </g>
</svg>