<?xml version="1.0" encoding="UTF-8"?>
<svg id="Calque_1" xmlns="http://www.w3.org/2000/svg" version="1.1" viewBox="0 0 405.3 257.7">
  <!-- Generator: Adobe Illustrator 29.4.0, SVG Export Plug-In . SVG Version: 2.1.0 Build 152)  -->
  <defs>
    <style>
      .st0 {
        fill: none;
      }

      .st1 {
        fill: #fff;
      }
    </style>
  </defs>
  <g>
    <path class="st0" d="M40.6,227.5c-1.2-8.1-1.9-16.4-1.9-24.8,0-90.5,73.4-163.9,163.9-163.9s163.9,73.4,163.9,163.9-.8,18.6-2.3,27.5"/>
    <path d="M6.7,214.3l27.8-1.5-.5-9,4.6-.2.8,13.7-32.4,1.8-.3-4.6h0Z"/>
    <path d="M13,173.1l-1.3,12.3,7.7.8,1.3-11.9,4.6.5-1.3,11.9,10.8,1.1,1.3-12.3,4.6.5-1.8,16.9-32.2-3.4,1.8-16.9,4.6.5h0Z"/>
    <path d="M21.5,139.7l1.2,4.3c-1.4.3-2.4.7-3,1.2-.6.5-1.1,1.3-1.4,2.3-.4,1.2-.3,2.4.2,3.4.5,1,1.3,1.7,2.4,2,1.5.4,3-.3,4.6-2.1l2.1-2.6c1.7-2.1,3.5-3.5,5.3-4.2,1.8-.7,3.8-.7,5.9,0,2.9.8,5,2.4,6.3,4.8,1.3,2.4,1.6,4.9.8,7.6-.7,2.6-2.2,4.4-4.3,5.6-2.1,1.2-4.6,1.5-7.6,1.1l.3-4.8c1.9.3,3.2.3,4.1,0,1.6-.5,2.7-1.7,3.2-3.4.4-1.4.3-2.7-.4-3.9-.7-1.2-1.8-2-3.3-2.5-.6-.2-1.2-.3-1.7-.2s-1.1.1-1.6.3c-.5.2-1,.5-1.6,1-.5.4-1.1,1-1.6,1.6l-2.1,2.5c-3,3.5-6.2,4.8-9.7,3.7-2.3-.7-4-2.1-5.1-4.3-1.1-2.2-1.3-4.5-.5-7,1-3.4,3.5-5.5,7.6-6.4h0Z"/>
    <path d="M42.8,96.8l23.4,15.1-2.5,3.9-23.4-15.1-3.8,5.9-3.9-2.5,10.2-15.8,3.9,2.5s-3.8,5.9-3.8,5.9Z"/>
    <path d="M73.2,80.8l16.6,2.4-3.8,4.2-15.7-2.5-.6.6,9.7,9-3.1,3.4-23.8-22,3.7-4c2.8-3,5.3-4.6,7.7-4.8,2.7-.2,5.1.6,7.2,2.6,1.7,1.6,2.7,3.3,3.1,5.4s0,4-1,5.8h0ZM66.6,82.6l1-1.1c3-3.2,3.2-6,.6-8.4-2.4-2.2-5.1-1.8-8,1.3l-1.1,1.2,7.6,7h0Z"/>
    <path d="M94.8,43.9l-9.9,7.4,4.7,6.2,9.6-7.2,2.8,3.7-9.6,7.2,6.5,8.7,9.9-7.4,2.8,3.7-13.6,10.2-19.5-25.9,13.6-10.2,2.8,3.7h0ZM85.6,34.1l-3,9.5-2.9-.2,1-9.2s4.9,0,4.9,0Z"/>
    <path d="M125,27.3l-2.3,3.8c-1.2-.8-2.2-1.3-2.9-1.3-.8,0-1.7,0-2.6.5-1.1.6-1.9,1.4-2.3,2.5-.4,1.1-.4,2.1.1,3.1.7,1.4,2.3,2,4.7,1.9l3.3-.2c2.7-.2,4.9.2,6.6,1,1.7.8,3.1,2.3,4.1,4.3,1.3,2.7,1.6,5.3.8,7.9-.8,2.6-2.5,4.5-5,5.8-2.4,1.2-4.7,1.4-7,.7-2.3-.7-4.3-2.3-6-4.8l3.7-3.1c1,1.6,2,2.6,2.8,3,1.5.8,3,.8,4.7,0,1.3-.6,2.1-1.6,2.5-3s.2-2.7-.5-4.1c-.3-.6-.6-1-1-1.4-.4-.4-.8-.7-1.3-.9-.5-.2-1.1-.4-1.8-.5s-1.4-.1-2.3,0l-3.2.2c-4.6.2-7.7-1.3-9.3-4.5-1.1-2.2-1.2-4.4-.4-6.6.8-2.3,2.4-4,4.8-5.2,3.2-1.6,6.5-1.2,9.9,1.1h0Z"/>
    <path d="M143.2,31.7c-1.1-4.4-.5-8.6,1.8-12.6,2.3-3.9,5.6-6.5,9.9-7.5,4.3-1.1,8.3-.4,12.2,2.1,3.9,2.4,6.3,5.9,7.5,10.4,1.1,4.5.6,8.7-1.7,12.7-2.3,3.9-5.6,6.4-10,7.5-3.9,1-7.7.4-11.4-1.6-4.2-2.3-6.9-5.9-8.1-10.9h0ZM147.7,30.6c.9,3.5,2.7,6.1,5.5,7.7,2.8,1.7,5.6,2.2,8.5,1.4,3.1-.8,5.5-2.6,7.1-5.4,1.6-2.8,1.9-5.9,1.1-9.2-.8-3.3-2.6-5.9-5.3-7.6-2.7-1.7-5.6-2.2-8.7-1.5-3.1.8-5.4,2.6-7,5.4-1.6,2.8-1.9,5.8-1.1,9.2h0Z"/>
    <path d="M200.1,24.9l9.9,13.6h-5.7c0,.1-9.1-12.9-9.1-12.9h-.8s.3,13.3.3,13.3h-4.6c0,.1-.8-32.3-.8-32.3h5.4c4.1-.2,7,.5,8.9,2.1,2,1.7,3.1,4.1,3.2,7,0,2.3-.5,4.3-1.7,6-1.2,1.7-2.8,2.8-4.9,3.3h0ZM194.2,21.4h1.5c4.4-.1,6.6-2,6.5-5.5,0-3.3-2.3-4.9-6.5-4.8h-1.7s.2,10.3.2,10.3Z"/>
    <path d="M242,15l-4.1,1.7c-.5-1.4-1-2.3-1.6-2.8-.6-.5-1.4-.9-2.4-1.1-1.3-.2-2.4,0-3.3.6-1,.6-1.5,1.5-1.7,2.6-.2,1.6.7,3,2.7,4.3l2.8,1.8c2.3,1.4,3.9,3,4.8,4.7.9,1.7,1.2,3.6.8,5.8-.5,2.9-1.8,5.2-4,6.8-2.2,1.6-4.7,2.2-7.4,1.8-2.6-.4-4.7-1.6-6.1-3.5-1.4-1.9-2.1-4.4-2.1-7.4l4.8-.3c0,1.9,0,3.3.5,4.1.7,1.5,2,2.4,3.8,2.7,1.4.2,2.7,0,3.8-.9s1.8-2.1,2-3.6c.1-.6.1-1.2,0-1.7s-.3-1.1-.5-1.5-.7-1-1.2-1.4c-.5-.5-1.1-.9-1.8-1.4l-2.7-1.7c-3.9-2.5-5.5-5.5-4.9-9.1.4-2.4,1.6-4.3,3.6-5.6,2-1.3,4.3-1.8,6.9-1.4,3.5.6,6,2.8,7.4,6.7h0Z"/>
    <path d="M267.6,51.7l14.8-28.8,5.7,2.9c2.7,1.4,4.8,2.8,6.1,4.2,1.4,1.4,2.5,3.2,3.2,5.2,1.4,4.2,1,8.5-1.3,12.9-2.3,4.4-5.6,7.3-9.9,8.5-2.2.6-4.2.8-6.1.5-1.8-.2-4.1-1.1-6.8-2.5l-5.7-2.9h0ZM273.8,49.7l1.9,1c1.9.9,3.5,1.5,4.9,1.8,1.4.2,2.9,0,4.4-.4,3-.9,5.4-2.9,7-6.1,1.6-3.2,1.9-6.2.9-9.2-.9-2.7-3.1-4.9-6.6-6.7l-1.9-1-10.6,20.6h0Z"/>
    <path d="M329,58.1l-9.7-7.7-4.8,6.1,9.4,7.5-2.9,3.6-9.4-7.5-6.7,8.5,9.7,7.7-2.9,3.6-13.3-10.6,20.2-25.4,13.3,10.6-2.9,3.6h0Z"/>
    <path d="M371.1,104.4l-4.8,3.2c.5-3.5-.1-6.5-1.7-8.9-1.8-2.6-4.2-4.2-7.4-4.6-3.2-.5-6.2.2-9.1,2.1-2.8,1.9-4.6,4.4-5.3,7.5-.7,3.1-.2,6,1.6,8.6.9,1.4,1.9,2.4,3,3,.6.4,1.3.7,2,1,.8.3,1.7.6,2.6.8l-4.9,3.3c-2.8-1.3-5-3.2-6.6-5.6-2.4-3.6-3.2-7.7-2.2-12.1,1-4.4,3.4-7.9,7.2-10.4,3.4-2.3,7.2-3.3,11.3-2.9,5.1.4,9,2.8,11.8,7,1.5,2.3,2.4,5,2.5,8h0Z"/>
    <path d="M365.2,146.5l-4.8-12.3-8.6-.3-1.8-4.7,37.6,1.7-26.8,26.2-1.8-4.7,6.2-5.9h0ZM368.8,143.1l8.6-8.3-12-.5,3.4,8.7h0Z"/>
    <path d="M378.2,174.6l-12,11.7-.9-5.6,11.6-10.9v-.8c-.1,0-13.2,2.2-13.2,2.2l-.8-4.6,32-5.4.9,5.4c.7,4,.4,7-.9,9.1-1.4,2.3-3.6,3.6-6.5,4.1-2.3.4-4.3.1-6.1-.9s-3.1-2.4-3.9-4.3h0ZM380.9,168.3l.2,1.5c.7,4.3,2.8,6.2,6.3,5.6,3.3-.5,4.5-2.9,3.8-7.2l-.3-1.6-10.1,1.7h0Z"/>
    <path d="M383.5,195.3c4.6.2,8.4,2,11.5,5.3,3.1,3.3,4.6,7.2,4.4,11.6-.2,4.4-2,8.1-5.5,11-3.4,3-7.5,4.4-12.1,4.2-4.7-.2-8.5-2-11.6-5.3-3.1-3.3-4.5-7.2-4.3-11.7.2-4,1.8-7.5,4.8-10.5,3.4-3.3,7.6-4.9,12.8-4.6h0ZM383.2,199.9c-3.6-.2-6.6.8-9,3-2.4,2.2-3.7,4.7-3.8,7.7-.1,3.2.9,6,3.1,8.3,2.3,2.3,5.1,3.6,8.5,3.7,3.4.2,6.4-.8,8.8-2.9,2.4-2.1,3.7-4.7,3.9-7.9.1-3.2-.9-6-3.1-8.3-2.2-2.3-5-3.5-8.4-3.7h0Z"/>
  </g>
  <path d="M138.1,162.1h133.5c6,0,11,4.9,11,11v40.7c0,24.2-19.7,43.9-43.9,43.9h-68.9c-23.6,0-42.8-19.2-42.8-42.8v-41.5c0-6.2,5-11.2,11.2-11.2h0Z"/>
  <path d="M252,162.8h-13v-22.6c0-13.2-11.2-24-25-24h-19.7c-13.8,0-25,10.7-25,24v22.6h-13v-22.6c0-20.4,17.1-37,38-37h19.7c21,0,38,16.6,38,37v22.6Z"/>
  <path class="st1" d="M204.8,245.4c-23.6,0-42.8-19.2-42.8-42.8s1.6-3.5,3.5-3.5,3.5,1.6,3.5,3.5c0,19.7,16,35.8,35.8,35.8s35.8-16,35.8-35.8,1.6-3.5,3.5-3.5,3.5,1.6,3.5,3.5c0,23.6-19.2,42.8-42.8,42.8Z"/>
  <path class="st1" d="M174.5,183.5c-.7,0-1.4-.2-2-.6-2.9-1.9-6.3-3-9.7-3s-6.2.8-8.9,2.5c-1.7,1-3.8.4-4.8-1.2s-.5-3.8,1.2-4.8c3.8-2.3,8.1-3.4,12.5-3.4s9.6,1.4,13.6,4.2c1.6,1.1,2,3.3.9,4.9-.7,1-1.8,1.5-2.9,1.5Z"/>
  <g id="BI8WX8">
    <g>
      <path class="st1" d="M245.1,190.1c2.7-1.9,5.3-3.9,7.4-6.4.8-.9,1.4-1.9,1.8-3.1.7-2.1-.1-4.4-2-5.5-1.9-1.2-4.2-1-5.8.6s-1,1.2-1.5,1.8h0c0-.1-.1-.2-.2-.3-.9-1.7-2.3-2.6-4.2-2.8-2.6-.2-5,2-5,4.6,0,1.5.6,2.8,1.4,3.9,2.2,2.9,5.1,5.1,8,7.1h0Z"/>
      <path class="st1" d="M245.1,190.1c-3-2.1-5.9-4.2-8-7.1-.9-1.2-1.5-2.4-1.4-3.9,0-2.6,2.4-4.8,5-4.6,1.9.1,3.3,1.1,4.2,2.8,0,.1.1.2.2.3,0,0,0,0,0,0,.5-.6.9-1.3,1.5-1.8,1.6-1.6,3.9-1.8,5.8-.6,1.8,1.1,2.6,3.4,2,5.5-.4,1.2-1,2.2-1.8,3.1-2.1,2.5-4.7,4.5-7.4,6.4h0Z"/>
    </g>
  </g>
</svg>