<?xml version="1.0" encoding="UTF-8"?>
<svg id="Calque_1" xmlns="http://www.w3.org/2000/svg" width="144.38mm" height="51.03mm" viewBox="0 0 409.26 144.64">
  <g>
    <path d="M29.71,19.57v1.11h-7.29v54.19h13.07c1.74,0,3.5-.29,5.27-.87,1.77-.58,3.43-1.54,4.99-2.89,1.56-1.35,2.96-3.09,4.2-5.23,1.24-2.14,2.2-4.74,2.89-7.8h1.03v17.9H3.64v-1.11h7.29V20.68H3.64v-1.11h26.06Z"/>
    <path d="M61.87,74.87l23.61-57.52h2.14l24.96,57.52h6.81v1.11h-26.62v-1.11h7.37l-9.19-21.23h-19.01l-8.79,21.23h7.05v1.11h-14.97v-1.11h6.65ZM72.33,52.52h18.22l-9.35-21.63-8.87,21.63Z"/>
    <path d="M162.4,19.57l13.71,39.45h.16l13.94-39.45h19.81v1.11h-7.29v54.19h7.29v1.11h-25.98v-1.11h7.21V20.68h-.16l-19.49,55.3h-1.27l-19.57-55.3h-.16v54.19h7.29v1.11h-15.84v-1.11h7.29V20.68h-7.29v-1.11h20.36Z"/>
    <path d="M218.77,35.73c1.82-3.64,4.16-6.76,7.01-9.35,2.85-2.59,6.05-4.58,9.59-5.98,3.54-1.4,7-2.1,10.38-2.1,3.64,0,7.25.69,10.81,2.06,3.57,1.37,6.73,3.33,9.51,5.86s5.02,5.61,6.73,9.23c1.72,3.62,2.58,7.7,2.58,12.24,0,3.96-.81,7.72-2.42,11.29-1.61,3.57-3.78,6.69-6.5,9.39-2.72,2.69-5.86,4.82-9.43,6.38-3.57,1.56-7.33,2.34-11.29,2.34s-7.66-.75-11.25-2.26c-3.59-1.51-6.75-3.57-9.47-6.18-2.72-2.61-4.9-5.69-6.54-9.23-1.64-3.54-2.46-7.37-2.46-11.49,0-4.49.91-8.56,2.73-12.2ZM229.9,61.6c.63,3.62,1.62,6.5,2.97,8.64,1.35,2.14,3.09,3.63,5.23,4.48,2.14.85,4.69,1.27,7.65,1.27,3.91,0,6.97-.73,9.19-2.18,2.22-1.45,3.88-3.46,4.99-6.02,1.11-2.56,1.81-5.6,2.1-9.11.29-3.51.44-7.33.44-11.45,0-3.7-.12-7.22-.36-10.58-.24-3.35-.91-6.31-2.02-8.87-1.11-2.56-2.79-4.59-5.03-6.1-2.25-1.5-5.35-2.26-9.31-2.26-3.7,0-6.66.7-8.87,2.1-2.22,1.4-3.91,3.37-5.07,5.9-1.16,2.54-1.93,5.55-2.3,9.03-.37,3.49-.55,7.32-.55,11.49,0,5.49.32,10.05.95,13.67ZM248.68,0l8.56,15.61h-.95l-10.54-10.06-10.54,10.06h-.95l8.63-15.61h5.78Z"/>
    <path d="M301.75,19.57l13.71,39.45h.16l13.94-39.45h19.81v1.11h-7.29v54.19h7.29v1.11h-25.98v-1.11h7.21V20.68h-.16l-19.49,55.3h-1.27l-19.57-55.3h-.16v54.19h7.29v1.11h-15.84v-1.11h7.29V20.68h-7.29v-1.11h20.36Z"/>
    <path d="M402.37,19.57v13.55h-1.03c-.26-.9-.71-2.05-1.35-3.45-.63-1.4-1.52-2.76-2.65-4.08-1.14-1.32-2.6-2.47-4.4-3.45-1.8-.98-3.99-1.47-6.58-1.47h-12.6v24.48h4.44c1.95,0,3.6-.28,4.95-.83s2.47-1.35,3.37-2.38c.9-1.03,1.64-2.27,2.22-3.72.58-1.45,1.06-3.08,1.43-4.87h1.03v24.64h-1.03c-.37-1.53-.81-3.01-1.31-4.44-.5-1.43-1.18-2.68-2.02-3.76-.84-1.08-1.89-1.94-3.13-2.57-1.24-.63-2.79-.95-4.63-.95h-5.31v28.6h12.99c2.43,0,4.62-.41,6.58-1.23,1.95-.82,3.68-1.97,5.19-3.45,1.5-1.48,2.76-3.21,3.76-5.19,1-1.98,1.77-4.11,2.3-6.38h1.03v17.35h-50.62v-1.11h7.29V20.68h-7.29v-1.11h47.38Z"/>
  </g>
  <g>
    <path d="M131.52,104.65l6.88,19.8h.08l7-19.8h9.94v.56h-3.66v27.19h3.66v.56h-13.04v-.56h3.62v-27.19h-.08l-9.78,27.75h-.64l-9.82-27.75h-.08v27.19h3.66v.56h-7.95v-.56h3.66v-27.19h-3.66v-.56h10.22Z"/>
    <path d="M175.31,133.31c-.7.11-1.36.16-1.97.16-1.35,0-2.35-.24-3-.72-.65-.48-1.05-1.14-1.21-1.99h-.08c-.42,1.06-1.01,1.78-1.75,2.15-.74.37-1.82.56-3.22.56-.64,0-1.29-.07-1.95-.2-.66-.13-1.27-.34-1.83-.64-.56-.29-1.01-.7-1.35-1.21-.34-.52-.52-1.15-.52-1.89s.15-1.41.46-1.93c.3-.52.7-.95,1.19-1.31.49-.36,1.05-.65,1.67-.87.62-.23,1.27-.44,1.93-.66,1.09-.32,1.97-.59,2.64-.82.68-.22,1.2-.46,1.57-.71s.63-.54.78-.86c.15-.32.22-.73.22-1.23v-2.42c0-.72-.17-1.36-.52-1.95-.34-.58-.99-.87-1.95-.87-.61,0-1.14.14-1.59.42-.45.28-.68.79-.68,1.53,0,.08.01.22.04.42.03.2.05.42.08.66s.05.46.08.68.04.36.04.44c0,.4-.09.71-.28.93-.19.23-.4.39-.66.5-.25.11-.52.17-.79.18-.28.01-.51.02-.7.02-.27,0-.54-.02-.82-.06-.28-.04-.52-.13-.74-.28s-.39-.35-.54-.62c-.15-.26-.22-.62-.22-1.07,0-.69.19-1.31.58-1.85.38-.54.89-.99,1.53-1.35.64-.36,1.36-.63,2.17-.81.81-.19,1.65-.28,2.52-.28,1.01,0,1.95.08,2.84.24.89.16,1.66.45,2.31.88.65.42,1.17,1,1.55,1.73.38.73.58,1.65.58,2.76v9.86c0,.5.07.95.22,1.33.14.38.51.58,1.09.58.34,0,.63-.07.85-.2.23-.13.44-.32.66-.56l.36.36c-.37.56-.91.89-1.61.99ZM168.81,123.1c-.05.16-.15.31-.3.46-.15.15-.4.31-.77.5-.5.24-1.01.47-1.51.7-.5.23-.95.51-1.35.85s-.72.77-.97,1.27c-.25.5-.38,1.15-.38,1.95,0,.32.02.69.06,1.11.04.42.14.83.32,1.23.17.4.43.74.78,1.01.34.28.82.42,1.43.42.34,0,.68-.08,1.01-.24.33-.16.63-.4.89-.74.26-.33.48-.77.64-1.31s.24-1.2.24-1.97v-5.25h-.08Z"/>
    <path d="M186.38,115.9v3.34h.08c.48-1.01,1.12-1.87,1.93-2.6.81-.73,1.88-1.09,3.2-1.09,1.11,0,2.01.3,2.7.89.69.6,1.03,1.43,1.03,2.49,0,.79-.19,1.42-.58,1.87-.38.45-1,.68-1.85.68-.61,0-1.17-.12-1.67-.38-.5-.25-.76-.72-.76-1.41,0-.08.01-.22.04-.42.03-.2.06-.41.1-.64.04-.22.07-.43.1-.62.03-.18.04-.29.04-.32-.03-.21-.07-.38-.12-.5-.05-.12-.14-.22-.26-.32-.12-.09-.3-.14-.54-.14-.27,0-.6.13-.99.38s-.77.62-1.11,1.09c-.34.48-.64,1.05-.89,1.73s-.38,1.44-.38,2.29v10.18h3.14v.56h-10.58v-.56h2.58v-15.94h-2.58v-.56h7.35Z"/>
    <path d="M197.35,127.19c.32.74.64,1.46.97,2.15.33.69.72,1.3,1.17,1.83.45.53.99.96,1.63,1.29.64.33,1.42.5,2.35.5.24,0,.56-.01.95-.04.4-.03.79-.14,1.17-.34.38-.2.72-.5.99-.91.28-.41.42-1,.42-1.77,0-.24-.03-.48-.1-.74-.07-.25-.21-.51-.42-.78-.21-.26-.52-.52-.93-.77s-.97-.51-1.69-.78l-3.22-1.19c-.37-.13-.77-.31-1.19-.54-.42-.22-.82-.52-1.17-.89-.36-.37-.66-.81-.89-1.33-.24-.52-.36-1.13-.36-1.85,0-.77.16-1.5.48-2.19.32-.69.76-1.29,1.33-1.81.57-.52,1.26-.93,2.07-1.23.81-.3,1.69-.46,2.64-.46.5,0,.97.05,1.41.16.44.11.83.22,1.19.34.36.12.68.23.95.34.28.11.5.16.66.16.29,0,.48-.05.56-.16.08-.11.15-.22.2-.36h.56v4.85h-.52c-.27-.64-.54-1.25-.82-1.83-.28-.58-.61-1.09-.99-1.53-.38-.44-.85-.78-1.41-1.03s-1.25-.38-2.07-.38c-.88,0-1.68.23-2.41.7-.73.46-1.09,1.15-1.09,2.05,0,.19.03.4.08.64.05.24.17.48.36.74.19.25.48.5.88.76s.93.5,1.59.74l3.38,1.15c1.43.5,2.52,1.17,3.26,1.99s1.11,1.87,1.11,3.14c0,.87-.19,1.66-.58,2.37-.38.7-.89,1.3-1.51,1.79-.62.49-1.35.87-2.17,1.13s-1.67.4-2.54.4c-.48,0-.99-.05-1.55-.16-.56-.11-1.09-.23-1.61-.38-.52-.15-.99-.27-1.41-.38-.42-.11-.76-.16-.99-.16-.21,0-.37.04-.46.12-.09.08-.18.23-.26.44h-.56v-5.76h.56Z"/>
    <path d="M218.74,124.77c0,.95.04,1.92.12,2.88.08.97.29,1.84.64,2.62.34.78.85,1.42,1.51,1.93.66.5,1.59.75,2.78.75,1.06,0,1.95-.2,2.68-.6s1.33-.85,1.79-1.37.81-1.03,1.03-1.53c.22-.5.35-.88.38-1.11l.56.2c-.13.5-.36,1.04-.68,1.61-.32.57-.75,1.1-1.31,1.59-.56.49-1.25.9-2.07,1.23s-1.82.5-2.98.5c-1.38,0-2.66-.21-3.86-.62-1.19-.41-2.23-1.01-3.12-1.79-.89-.78-1.58-1.74-2.09-2.86-.5-1.13-.75-2.41-.75-3.84,0-1.14.24-2.25.72-3.34.48-1.09,1.13-2.05,1.97-2.88s1.81-1.51,2.94-2.03c1.13-.52,2.34-.78,3.64-.78.93,0,1.85.15,2.78.44.93.29,1.76.74,2.5,1.35s1.35,1.4,1.83,2.37c.48.97.72,2.13.72,3.48h-11.73v1.79ZM225.1,119.76c0-.29-.01-.65-.04-1.07s-.12-.85-.28-1.27-.42-.78-.78-1.07c-.36-.29-.85-.44-1.49-.44-.9,0-1.6.21-2.09.64-.49.42-.86.96-1.09,1.61s-.39,1.35-.46,2.11c-.07.75-.11,1.48-.14,2.17h6.36v-2.66Z"/>
    <path d="M240.81,115.9v16.5h2.66v.56h-10.18v-.56h2.66v-15.94h-2.66v-.56h7.51ZM236.39,105.37c.56-.56,1.22-.83,1.99-.83s1.43.28,1.99.83.83,1.22.83,1.99-.28,1.43-.83,1.99-1.22.83-1.99.83-1.43-.28-1.99-.83-.83-1.22-.83-1.99.28-1.43.83-1.99Z"/>
    <path d="M253.33,104.29v28.11h2.66v.56h-10.18v-.56h2.66v-27.55h-2.66v-.56h7.51Z"/>
    <path d="M265.85,104.29v28.11h2.66v.56h-10.18v-.56h2.66v-27.55h-2.66v-.56h7.51Z"/>
    <path d="M276.19,124.77c0,.95.04,1.92.12,2.88.08.97.29,1.84.64,2.62.34.78.85,1.42,1.51,1.93.66.5,1.59.75,2.78.75,1.06,0,1.95-.2,2.68-.6s1.33-.85,1.79-1.37.81-1.03,1.03-1.53c.22-.5.35-.88.38-1.11l.56.2c-.13.5-.36,1.04-.68,1.61-.32.57-.75,1.1-1.31,1.59-.56.49-1.25.9-2.07,1.23s-1.82.5-2.98.5c-1.38,0-2.66-.21-3.86-.62-1.19-.41-2.23-1.01-3.12-1.79-.89-.78-1.58-1.74-2.09-2.86-.5-1.13-.75-2.41-.75-3.84,0-1.14.24-2.25.72-3.34.48-1.09,1.13-2.05,1.97-2.88s1.81-1.51,2.94-2.03c1.13-.52,2.34-.78,3.64-.78.93,0,1.85.15,2.78.44.93.29,1.76.74,2.5,1.35s1.35,1.4,1.83,2.37c.48.97.72,2.13.72,3.48h-11.73v1.79ZM282.55,119.76c0-.29-.01-.65-.04-1.07s-.12-.85-.28-1.27-.42-.78-.78-1.07c-.36-.29-.85-.44-1.49-.44-.9,0-1.6.21-2.09.64-.49.42-.86.96-1.09,1.61s-.39,1.35-.46,2.11c-.07.75-.11,1.48-.14,2.17h6.36v-2.66Z"/>
  </g>
</svg>