<?xml version="1.0" encoding="UTF-8"?>
<svg id="Calque_1" xmlns="http://www.w3.org/2000/svg" width="163.65mm" height="34.72mm" viewBox="0 0 463.9 98.42">
  <g>
    <path d="M19.53,43.56c-5.09,0-8.98-1.39-11.67-4.16-3.61-3.4-5.41-8.3-5.41-14.7s1.8-11.42,5.41-14.7c2.69-2.77,6.58-4.16,11.67-4.16s8.98,1.39,11.67,4.16c3.59,3.27,5.39,8.17,5.39,14.7s-1.8,11.3-5.39,14.7c-2.69,2.77-6.58,4.16-11.67,4.16ZM26.56,33.98c1.72-2.17,2.59-5.27,2.59-9.28s-.87-7.09-2.6-9.27c-1.73-2.18-4.07-3.27-7.02-3.27s-5.3,1.09-7.06,3.26c-1.76,2.18-2.63,5.27-2.63,9.28s.88,7.11,2.63,9.28c1.76,2.18,4.11,3.26,7.06,3.26s5.29-1.09,7.03-3.26Z"/>
    <path d="M77.31,39.91c-2.66,2.43-6.06,3.65-10.2,3.65-5.12,0-9.15-1.64-12.09-4.93-2.93-3.3-4.4-7.83-4.4-13.58,0-6.22,1.67-11.01,5-14.38,2.9-2.93,6.59-4.4,11.07-4.4,5.99,0,10.38,1.97,13.15,5.9,1.53,2.21,2.35,4.42,2.47,6.65h-7.44c-.48-1.71-1.1-3-1.86-3.87-1.35-1.55-3.36-2.32-6.02-2.32s-4.84,1.09-6.41,3.28-2.34,5.27-2.34,9.27.83,6.99,2.48,8.98c1.65,1.99,3.75,2.99,6.3,2.99s4.6-.85,5.97-2.56c.76-.92,1.39-2.3,1.89-4.13h7.37c-.64,3.88-2.29,7.04-4.93,9.47Z"/>
    <path d="M122.96,39.91c-2.66,2.43-6.06,3.65-10.2,3.65-5.12,0-9.15-1.64-12.09-4.93-2.93-3.3-4.4-7.83-4.4-13.58,0-6.22,1.67-11.01,5-14.38,2.9-2.93,6.59-4.4,11.07-4.4,5.99,0,10.38,1.97,13.15,5.9,1.53,2.21,2.35,4.42,2.47,6.65h-7.44c-.48-1.71-1.1-3-1.86-3.87-1.35-1.55-3.36-2.32-6.02-2.32s-4.84,1.09-6.41,3.28-2.34,5.27-2.34,9.27.83,6.99,2.48,8.98c1.65,1.99,3.75,2.99,6.3,2.99s4.6-.85,5.97-2.56c.76-.92,1.39-2.3,1.89-4.13h7.37c-.64,3.88-2.29,7.04-4.93,9.47Z"/>
    <path d="M164.33,35.24h-13.12l-2.47,7.32h-7.78l12.71-35.63h8.41l12.62,35.63h-8.07l-2.3-7.32ZM162.25,29.1l-4.45-14.02-4.59,14.02h9.04Z"/>
    <path d="M202.05,37.42c1.76,0,3.18-.19,4.28-.58,2.08-.74,3.12-2.12,3.12-4.13,0-1.18-.52-2.09-1.55-2.73-1.03-.63-2.65-1.18-4.86-1.67l-3.77-.85c-3.71-.84-6.27-1.75-7.69-2.73-2.4-1.64-3.6-4.21-3.6-7.71,0-3.19,1.16-5.84,3.48-7.95,2.32-2.11,5.73-3.17,10.22-3.17,3.75,0,6.96,1,9.61,2.99,2.65,1.99,4.04,4.88,4.17,8.67h-7.15c-.13-2.14-1.06-3.67-2.8-4.57-1.16-.6-2.6-.89-4.33-.89-1.92,0-3.45.39-4.59,1.16-1.14.77-1.72,1.85-1.72,3.24,0,1.27.56,2.22,1.69,2.85.73.42,2.27.91,4.64,1.47l6.14,1.47c2.69.64,4.72,1.51,6.09,2.59,2.13,1.68,3.19,4.1,3.19,7.28s-1.24,5.96-3.73,8.11c-2.49,2.15-6.01,3.23-10.55,3.23s-8.29-1.06-10.95-3.18-3.99-5.03-3.99-8.74h7.11c.23,1.63.67,2.84,1.33,3.65,1.21,1.47,3.28,2.2,6.21,2.2Z"/>
    <path d="M231.45,6.94h7.4v35.63h-7.4V6.94Z"/>
    <path d="M271.45,43.56c-5.09,0-8.98-1.39-11.67-4.16-3.61-3.4-5.41-8.3-5.41-14.7s1.8-11.42,5.41-14.7c2.69-2.77,6.58-4.16,11.67-4.16s8.98,1.39,11.67,4.16c3.59,3.27,5.39,8.17,5.39,14.7s-1.8,11.3-5.39,14.7c-2.69,2.77-6.58,4.16-11.67,4.16ZM278.48,33.98c1.72-2.17,2.59-5.27,2.59-9.28s-.87-7.09-2.6-9.27c-1.73-2.18-4.07-3.27-7.02-3.27s-5.3,1.09-7.06,3.26c-1.76,2.18-2.63,5.27-2.63,9.28s.88,7.11,2.63,9.28c1.76,2.18,4.11,3.26,7.06,3.26s5.29-1.09,7.03-3.26Z"/>
    <path d="M332.9,42.56h-7.45l-14.55-25.31v25.31h-6.94V6.94h7.81l14.19,24.87V6.94h6.94v35.63Z"/>
    <path d="M378.55,42.56h-7.45l-14.55-25.31v25.31h-6.94V6.94h7.81l14.19,24.87V6.94h6.94v35.63Z"/>
    <path d="M420.19,27h-17.31v9.16h19.72v6.41h-27V6.94h26.13v6.31h-18.85v7.56h17.31v6.19Z"/>
    <path d="M438.3,6.94h7.44v29.22h17.64v6.41h-25.09V6.94Z"/>
  </g>
  <g>
    <path d="M107.92,65.42v19.77h-3.72v-2.03c-.55.87-1.17,1.5-1.87,1.89-.7.39-1.57.59-2.6.59-1.71,0-3.15-.69-4.32-2.08-1.17-1.38-1.75-3.16-1.75-5.32,0-2.5.57-4.46,1.73-5.89s2.69-2.15,4.61-2.15c.89,0,1.67.19,2.36.58.69.39,1.25.93,1.68,1.62v-6.98h3.88ZM97.61,77.97c0,1.35.27,2.43.81,3.24.53.81,1.33,1.22,2.42,1.22s1.91-.4,2.47-1.21.85-1.85.85-3.13c0-1.79-.45-3.07-1.36-3.84-.56-.47-1.2-.7-1.93-.7-1.12,0-1.94.42-2.46,1.27-.52.85-.79,1.9-.79,3.15Z"/>
    <path d="M123.93,80.89c-.1.87-.55,1.75-1.36,2.65-1.25,1.42-3.01,2.13-5.26,2.13-1.86,0-3.5-.6-4.93-1.8-1.42-1.2-2.13-3.15-2.13-5.85,0-2.53.64-4.48,1.93-5.83,1.28-1.35,2.95-2.03,5-2.03,1.22,0,2.31.23,3.29.68.98.46,1.78,1.18,2.42,2.16.57.87.94,1.88,1.11,3.02.1.67.14,1.64.12,2.9h-10.02c.05,1.47.51,2.5,1.38,3.09.53.37,1.16.55,1.91.55.79,0,1.43-.22,1.92-.67.27-.24.51-.58.71-1.01h3.91ZM120.14,76.41c-.06-1.01-.37-1.78-.92-2.3-.55-.52-1.23-.79-2.05-.79-.89,0-1.57.28-2.06.83-.49.56-.79,1.31-.92,2.26h5.95ZM115.17,68.58l2.58-4.01h4.27l-4.08,4.01h-2.77Z"/>
    <path d="M138.95,72.12c1.18,1.26,1.77,3.12,1.77,5.56,0,2.58-.58,4.54-1.74,5.89s-2.65,2.03-4.48,2.03c-1.16,0-2.13-.29-2.9-.87-.42-.32-.83-.79-1.24-1.41v7.63h-3.79v-20.4h3.67v2.16c.41-.64.85-1.14,1.32-1.5.85-.65,1.86-.98,3.03-.98,1.71,0,3.16.63,4.35,1.89ZM136.78,77.87c0-1.13-.26-2.13-.77-2.99s-1.35-1.3-2.5-1.3c-1.39,0-2.34.66-2.86,1.97-.27.7-.4,1.58-.4,2.66,0,1.7.45,2.9,1.36,3.58.54.4,1.17.6,1.91.6,1.07,0,1.88-.41,2.44-1.24.56-.82.84-1.92.84-3.29Z"/>
    <path d="M155.7,72.41c1.24,1.55,1.85,3.38,1.85,5.49s-.62,3.99-1.85,5.51-3.11,2.29-5.63,2.29-4.39-.76-5.63-2.29-1.85-3.36-1.85-5.51.62-3.94,1.85-5.49,3.11-2.32,5.63-2.32,4.39.77,5.63,2.32ZM148.35,64.57h3.44l3.14,4.01h-3.12l-1.75-2.26-1.76,2.26h-3.12l3.16-4.01ZM150.06,73.32c-1.12,0-1.98.4-2.58,1.19-.6.79-.91,1.92-.91,3.39s.3,2.6.91,3.4c.6.8,1.47,1.2,2.58,1.2s1.98-.4,2.58-1.2c.6-.8.9-1.93.9-3.4s-.3-2.6-.9-3.39c-.6-.79-1.46-1.19-2.58-1.19Z"/>
    <path d="M166.99,82.46v2.86l-1.81.07c-1.81.06-3.04-.25-3.71-.94-.43-.44-.64-1.12-.64-2.03v-9.01h-2.04v-2.73h2.04v-4.08h3.79v4.08h2.38v2.73h-2.38v7.73c0,.6.08.97.23,1.12.15.15.62.22,1.4.22.12,0,.24,0,.37,0,.13,0,.26-.01.38-.02Z"/>
    <path d="M175.93,75.71h7.71v3.63h-7.71v-3.63Z"/>
    <path d="M194.44,72.14c1.01-1.29,2.75-1.93,5.21-1.93,1.6,0,3.03.32,4.27.95s1.87,1.83,1.87,3.6v6.71c0,.47,0,1.03.03,1.69.03.5.1.84.23,1.02.13.18.31.33.56.44v.56h-4.16c-.12-.3-.2-.57-.24-.83-.04-.26-.08-.55-.11-.89-.53.57-1.14,1.06-1.83,1.46-.82.47-1.75.71-2.79.71-1.32,0-2.42-.38-3.28-1.13-.86-.76-1.3-1.83-1.3-3.22,0-1.8.69-3.1,2.08-3.91.76-.44,1.88-.75,3.36-.94l1.3-.16c.71-.09,1.21-.2,1.52-.34.55-.23.82-.6.82-1.09,0-.6-.21-1.01-.62-1.24-.42-.23-1.03-.34-1.83-.34-.9,0-1.54.22-1.92.67-.27.33-.45.78-.54,1.34h-3.69c.08-1.28.44-2.33,1.07-3.16ZM197.28,82.42c.36.3.8.44,1.32.44.82,0,1.58-.24,2.28-.72.69-.48,1.05-1.37,1.08-2.65v-1.42c-.24.15-.49.28-.73.37-.25.09-.58.18-1.01.26l-.86.16c-.81.14-1.38.32-1.73.52-.59.35-.89.89-.89,1.62,0,.65.18,1.12.55,1.41Z"/>
    <path d="M221.84,75.8h-3.92c-.07-.55-.25-1.04-.55-1.48-.43-.59-1.1-.89-2-.89-1.29,0-2.17.64-2.65,1.92-.25.68-.38,1.58-.38,2.71s.12,1.94.38,2.59c.46,1.22,1.32,1.83,2.58,1.83.9,0,1.53-.24,1.91-.72s.6-1.11.68-1.88h3.91c-.09,1.16-.51,2.26-1.26,3.3-1.2,1.67-2.98,2.51-5.33,2.51s-4.09-.7-5.2-2.1c-1.11-1.4-1.67-3.21-1.67-5.44,0-2.52.61-4.47,1.84-5.87s2.92-2.09,5.08-2.09c1.83,0,3.34.41,4.51,1.24,1.17.82,1.86,2.28,2.07,4.36Z"/>
    <path d="M237.7,76.6v8.59h-3.91v-8.9c0-.79-.13-1.42-.4-1.91-.35-.68-1.01-1.02-1.99-1.02s-1.78.34-2.3,1.01c-.52.68-.79,1.64-.79,2.89v7.92h-3.81v-19.73h3.81v7c.55-.85,1.2-1.44,1.93-1.78s1.5-.5,2.3-.5c.9,0,1.73.16,2.46.47.74.31,1.34.79,1.82,1.44.4.55.65,1.11.74,1.68.09.58.13,1.52.13,2.83Z"/>
    <path d="M241.82,72.14c1.01-1.29,2.75-1.93,5.21-1.93,1.6,0,3.03.32,4.27.95s1.87,1.83,1.87,3.6v6.71c0,.47,0,1.03.03,1.69.03.5.1.84.23,1.02.12.18.31.33.56.44v.56h-4.16c-.12-.3-.2-.57-.24-.83-.04-.26-.08-.55-.11-.89-.53.57-1.14,1.06-1.83,1.46-.82.47-1.75.71-2.79.71-1.32,0-2.42-.38-3.28-1.13-.86-.76-1.3-1.83-1.3-3.22,0-1.8.69-3.1,2.08-3.91.76-.44,1.88-.75,3.36-.94l1.3-.16c.71-.09,1.21-.2,1.52-.34.55-.23.82-.6.82-1.09,0-.6-.21-1.01-.62-1.24s-1.03-.34-1.83-.34c-.9,0-1.54.22-1.92.67-.27.33-.45.78-.54,1.34h-3.69c.08-1.28.44-2.33,1.07-3.16ZM244.67,82.42c.36.3.8.44,1.32.44.82,0,1.58-.24,2.28-.72.69-.48,1.05-1.37,1.08-2.65v-1.42c-.24.15-.49.28-.73.37-.25.09-.58.18-1.01.26l-.86.16c-.81.14-1.38.32-1.73.52-.59.35-.89.89-.89,1.62,0,.65.18,1.12.55,1.41Z"/>
    <path d="M263.27,82.46v2.86l-1.81.07c-1.81.06-3.04-.25-3.71-.94-.43-.44-.64-1.12-.64-2.03v-9.01h-2.04v-2.73h2.04v-4.08h3.79v4.08h2.38v2.73h-2.38v7.73c0,.6.08.97.23,1.12.15.15.62.22,1.4.22.12,0,.24,0,.37,0,.13,0,.26-.01.38-.02Z"/>
    <path d="M272.21,75.71h7.71v3.63h-7.71v-3.63Z"/>
    <path d="M288.73,70.55h4.3l3.05,10.8,3.12-10.8h4.11l-5.28,14.64h-4.04l-5.25-14.64Z"/>
    <path d="M317.99,80.89c-.1.87-.55,1.75-1.36,2.65-1.25,1.42-3.01,2.13-5.26,2.13-1.86,0-3.5-.6-4.93-1.8-1.42-1.2-2.14-3.15-2.14-5.85,0-2.53.64-4.48,1.93-5.83,1.29-1.35,2.95-2.03,5-2.03,1.22,0,2.31.23,3.29.68.98.46,1.78,1.18,2.42,2.16.57.87.94,1.88,1.11,3.02.1.67.14,1.64.12,2.9h-10.02c.05,1.47.51,2.5,1.38,3.09.53.37,1.16.55,1.91.55.79,0,1.43-.22,1.92-.67.27-.24.5-.58.71-1.01h3.91ZM314.2,76.41c-.06-1.01-.37-1.78-.92-2.3-.55-.52-1.23-.79-2.05-.79-.89,0-1.57.28-2.06.83-.49.56-.79,1.31-.92,2.26h5.95Z"/>
    <path d="M327.64,73.39c-1.3,0-2.19.55-2.67,1.65-.25.58-.38,1.33-.38,2.23v7.92h-3.81v-14.61h3.69v2.13c.49-.75.96-1.29,1.4-1.62.79-.59,1.79-.89,2.99-.89,1.51,0,2.75.4,3.71,1.19.96.79,1.44,2.11,1.44,3.94v9.86h-3.92v-8.9c0-.77-.1-1.36-.31-1.77-.38-.75-1.09-1.13-2.15-1.13Z"/>
    <path d="M344.25,82.46v2.86l-1.81.07c-1.81.06-3.04-.25-3.71-.94-.43-.44-.64-1.12-.64-2.03v-9.01h-2.04v-2.73h2.04v-4.08h3.79v4.08h2.38v2.73h-2.38v7.73c0,.6.08.97.23,1.12.15.15.62.22,1.4.22.12,0,.24,0,.37,0,.13,0,.26-.01.38-.02Z"/>
    <path d="M359.24,80.89c-.1.87-.55,1.75-1.36,2.65-1.25,1.42-3.01,2.13-5.26,2.13-1.86,0-3.5-.6-4.93-1.8-1.42-1.2-2.14-3.15-2.14-5.85,0-2.53.64-4.48,1.93-5.83,1.29-1.35,2.95-2.03,5-2.03,1.22,0,2.31.23,3.29.68.98.46,1.78,1.18,2.42,2.16.57.87.94,1.88,1.11,3.02.1.67.14,1.64.12,2.9h-10.02c.05,1.47.51,2.5,1.38,3.09.53.37,1.16.55,1.91.55.79,0,1.43-.22,1.92-.67.27-.24.5-.58.71-1.01h3.91ZM355.45,76.41c-.06-1.01-.37-1.78-.92-2.3-.55-.52-1.23-.79-2.05-.79-.89,0-1.57.28-2.06.83-.49.56-.79,1.31-.92,2.26h5.95Z"/>
  </g>
</svg>