<?xml version="1.0" encoding="UTF-8"?>
<svg id="Calque_2" xmlns="http://www.w3.org/2000/svg" width="30.32" height="15.84" viewBox="0 0 30.32 15.84">
  <path d="M23.42,9.64c4.16,0,6.9-2.19,6.9-5.39S27.27.03,24.22.03s-6.05,1.52-7.86,4.02c-.69-.66-1.47-1.39-2.43-2.12,0,0-1.66-1.94-5.3-1.94S2.25,2,2.25,5.64c0,2.56,2.3,3.3,4.1,3.89,1.18.38,2.15.7,2.15,1.4,0,1.17-.86,1.42-2.16,1.42s-3.14-.92-4-1.85l-2.34,2.96c1.48,1.67,3.7,2.37,5.91,2.37,3.33,0,6.99-1.45,6.99-5.76,0-2.68-2.44-3.51-4.28-4.13-1.13-.38-2.03-.68-2.03-1.29,0-1.11.92-1.29,1.91-1.29s2.46.55,3.33,1.48c1.08.98,2.13,1.73,3.09,2.32-.19.75-.3,1.53-.3,2.36,0,4.1,2.77,6.32,6.71,6.32,2.66,0,4.63-.64,6.5-1.89l1.07,1.36.55-4.52-4.52-.55.93,1.19c-.97.45-2.06.8-3.3.8-1.85,0-3.23-.89-3.23-2.89v-.22c1.48.37,2.83.52,4.1.52ZM24.31,2.96c.95,0,1.85.34,1.85,1.29,0,1.91-2.65,2.28-4.25,2.28-.68,0-1.39-.03-2.19-.09.31-1.48,2.43-3.48,4.59-3.48Z"/>
</svg>