<?xml version="1.0" encoding="UTF-8"?>
<svg id="Calque_1" xmlns="http://www.w3.org/2000/svg" width="3610.1" height="698.42" viewBox="0 0 3610.1 698.42">
  <path d="M3604.1,303.86c-21.91-100.81-117.79-150.78-230.2-150.78-160.14,0-301.11,112.39-301.11,293.03,0,159.93,108.65,250.18,259.48,250.18,139.64,0,210.56-54.25,250.33-85.14l-58.3-96.06c-33.14,21.65-87.57,48.71-150.57,50.35-5.76.17-11.52.11-17.24-.17-61.33-3.15-110.64-27.98-115.72-95.3-.03-.72,137.92,2.04,155.23,2.04,30.02,0,147.24-3.08,175.75-20.61,19.2-11.8,30.59-44.91,34.48-65.86,6.01-32.47,4.8-50.14-2.13-81.67ZM3455.39,351.68c-7.52,11.65-29.3,13.11-35.21,15.39-11.83,4.54-69.23,4.33-80.21,4.33-9.29,0-83.61-.41-94.6-1.27,1.38-12.55,5.59-25.74,12.24-38.47,6.66-12.73,15.89-24.86,26.92-35.71,16.76-16.48,38.99-29.02,66.93-31.9,28.31-2.91,61.2,2.65,78.49,16.13,26.49,20.66,37.53,56.38,25.43,71.5Z" style="fill: #fff;"/>
  <path d="M1266.49,558.01c-65.47,0-108.76-39.12-108.76-105.58,0-83.49,40.22-160.53,126.8-160.53,42.22,0,89.77,15.82,116.16,50.64l57-130.95c-38-40.07-120.37-54.85-172.13-54.85-180.57,0-294.68,143.59-294.68,320.97,0,133.1,95,220.71,227.03,220.71,62.29,0,128.91-17.96,179.6-59.15l-14.79-128.8c-35.9,28.54-70.83,47.55-116.23,47.55Z" style="fill: #fff;"/>
  <path d="M1724.62,156.74c-186.93,0-325.23,138.34-325.23,322.09,0,142.55,104.52,219.59,239.68,219.59,188,0,325.27-137.22,325.27-320.96,0-142.56-103.48-220.72-239.72-220.72ZM1661.25,558.01c-62.29,0-93.98-44.37-93.98-103.52,0-78.16,49.65-162.59,136.24-162.59,62.29,0,93.98,44.37,93.98,103.43,0,78.16-49.66,162.68-136.24,162.68Z" style="fill: #fff;"/>
  <path d="M2331.59,156.74c-64.4,0-120.38,32.76-158.38,83.4h-1.07c1.85-12.89,10.27-73.94,10.27-73.94h-162.59s-9.23,62.34-11.34,78.16l-69.69,442.46h164.74l41.18-257.69c9.5-62.25,33.79-133.02,107.69-133.02,45.4,0,62.29,24.25,62.29,67.59,0,16.85-2.1,33.79-5.28,51.76l-41.27,271.36h162.59l48.71-306.26c4.21-24.25,6.32-47.46,6.32-71.8,0-102.41-50.68-152.02-154.16-152.02Z" style="fill: #fff;"/>
  <path d="M841.76,532.01c-35.54,19.57-72.76,32.35-125.87,33.14-48.89.73-105.2-39.97-105.2-108.59v-2.99c49.71,17.26,94.64,33.4,152.19,32.64,142.54-1.86,236.53-74.98,236.53-184.86s-104.55-144.62-209.11-144.62c-93.42,0-184.79,41.29-247.55,110.93-31.62-23.14-62.1-46.68-90.24-66.68h0c-27.69-19.47-79.08-45.38-156.82-45.38-124.63,0-218.61,68.7-218.61,193.29,0,87.61,78.67,113.24,140.71,133.45,40.36,13.15,73.64,23.99,73.64,48.15,0,40.16-29.54,48.59-73.9,48.59s-107.73-31.65-137.27-63.37L0,617.08c50.68,57.09,126.74,81.33,202.75,81.33,114.05,0,239.71-49.61,239.71-197.41,0-91.92-83.58-120.21-146.86-141.61-38.61-12.98-69.02-20.55-69.65-41.35-1.01-33.22,31.68-44.36,65.48-44.36,25.01,0,56.13,8.99,87.32,28.78,31.19,19.78,77.63,56.65,101.41,71.11-12.22,33.76-19.3,69-19.3,108.35,0,140.5,95.01,216.5,230.17,216.5,88.12,0,144.45-14.22,211.77-51.76l19.89,37.34,44.25-145.13-145.13-44.25,19.92,37.4ZM793.49,257.07c32.72,0,63.37,11.61,63.37,44.29,0,40.82-39.43,65.18-75.14,70.59s-84.57-10.08-128.46-32.99c27.86-41.62,83.61-81.9,140.23-81.9Z" style="fill: #fff;"/>
  <path d="M2959.07,0l-41.32,224.58c-29.01-49.23-91.32-68.88-145.52-68.88-179.53,0-284.09,166.81-284.09,327.34,0,123.55,70.76,215.38,198.53,215.38,67.63,0,133.14-28.54,177.46-79.27-.77,8.94-11.57,67.67-11.57,67.67h163L3115.8,0h-156.73ZM2755.33,558.01c-62.29,0-97.16-44.37-97.16-104.55,0-80.3,52.79-162.59,139.38-162.59,62.29,0,97.16,44.28,97.16,104.46,0,80.31-52.79,162.68-139.38,162.68Z" style="fill: #fff;"/>
</svg>