<?xml version="1.0" encoding="UTF-8"?>
<svg id="Calque_1" xmlns="http://www.w3.org/2000/svg" width="1000" height="543.13" viewBox="0 0 1000 543.13">
  <path d="M842.25,376.62c-35.56,19.58-72.8,32.37-125.94,33.16-48.92.73-105.26-40-105.26-108.65v-3c49.74,17.27,94.69,33.42,152.28,32.66,142.63-1.86,236.67-75.02,236.67-184.97S895.39,1.13,790.77,1.13c-93.47,0-184.9,41.31-247.69,111-31.64-23.16-62.14-46.71-90.29-66.72h0C425.07,25.92,373.65,0,295.87,0,171.17,0,77.13,68.74,77.13,193.4c0,87.66,78.71,113.3,140.79,133.52,40.39,13.16,73.68,24,73.68,48.17,0,40.18-29.55,48.62-73.95,48.62s-107.79-31.66-137.35-63.41L0,461.74c50.71,57.12,126.81,81.38,202.87,81.38,114.12,0,239.85-49.64,239.85-197.52,0-91.97-83.62-120.28-146.94-141.7-38.63-12.99-69.06-20.56-69.69-41.37-1.01-33.24,31.7-44.39,65.52-44.39,25.02,0,56.16,9,87.37,28.8,31.21,19.8,77.68,56.68,101.47,71.15-12.22,33.78-19.31,69.04-19.31,108.41,0,140.58,95.06,216.63,230.31,216.63,88.17,0,144.53-14.23,211.9-51.8l19.9,37.37,44.28-145.22-145.21-44.28,19.93,37.42ZM793.95,101.52c32.74,0,63.41,11.62,63.41,44.31,0,40.85-39.45,65.22-75.19,70.64-35.73,5.42-84.62-10.09-128.53-33,27.87-41.64,83.66-81.94,140.31-81.94Z"/>
</svg>