<?xml version="1.0" encoding="UTF-8"?>
<svg id="Calque_2" xmlns="http://www.w3.org/2000/svg" width="71.99" height="13.37" viewBox="0 0 71.99 13.37">
  <path d="M15.34,9.32c2.72,0,4.52-1.43,4.52-3.53s-2-2.76-4-2.76-3.96.99-5.15,2.64c-.45-.43-.97-.91-1.59-1.39,0,0-1.09-1.27-3.47-1.27S1.47,4.31,1.47,6.69c0,1.67,1.5,2.16,2.69,2.55.77.25,1.41.46,1.41.92,0,.77-.56.93-1.41.93s-2.06-.6-2.62-1.21l-1.53,1.94c.97,1.09,2.42,1.55,3.87,1.55,2.18,0,4.58-.95,4.58-3.77,0-1.76-1.6-2.3-2.81-2.71-.74-.25-1.33-.45-1.33-.85,0-.73.61-.85,1.25-.85s1.61.36,2.18.97c.71.64,1.39,1.13,2.02,1.52-.13.49-.2,1-.2,1.55,0,2.68,1.82,4.14,4.4,4.14,1.74,0,3.03-.42,4.26-1.24l.7.89.36-2.96-2.96-.36.61.78c-.63.3-1.35.52-2.16.52-1.21,0-2.12-.58-2.12-1.9v-.14c.97.24,1.86.34,2.68.34ZM15.93,4.94c.63,0,1.21.22,1.21.85,0,1.25-1.74,1.49-2.78,1.49-.44,0-.91-.02-1.43-.06.2-.97,1.59-2.28,3.01-2.28Z"/>
  <path d="M19.85,9.15c0,2.54,1.82,4.22,4.34,4.22,1.19,0,2.85-.34,3.81-1.13l-.28-2.46c-.69.55-1.73.91-2.6.91-1.25,0-2.08-.75-2.08-2.02,0-1.6,1.15-3.07,2.8-3.07.81,0,1.72.3,2.22.97l1.09-2.5c-.73-.77-2.3-1.05-3.29-1.05-3.45,0-6.01,2.74-6.01,6.13Z"/>
  <path d="M34.52,3.02c-3.57,0-6.21,2.64-6.21,6.15,0,2.72,2,4.2,4.58,4.2,3.59,0,6.22-2.62,6.22-6.13,0-2.72-1.98-4.22-4.58-4.22ZM33.31,10.69c-1.19,0-1.8-.85-1.8-1.98,0-1.49.95-3.11,2.6-3.11,1.19,0,1.8.85,1.8,1.98,0,1.49-.95,3.11-2.6,3.11Z"/>
  <path d="M46.4,3.02c-1.23,0-2.3.63-3.03,1.59h-.02c.04-.25.06-.5.06-.75,0-.45-.06-.67-.06-.67h-3.11s.04.24.04.63c0,.24-.02.57-.06.87l-1.33,8.46h3.15l.79-4.92c.18-1.19.65-2.54,2.06-2.54.87,0,1.19.46,1.19,1.29,0,.32-.04.65-.1.99l-.56,3.61c-.06.34-.08.63-.08.87,0,.31.03.55.08.71h3.11s-.06-.26-.06-.71c0-.2.02-.46.06-.75l.71-4.4c.08-.46.12-.91.12-1.37,0-1.96-.97-2.9-2.95-2.9Z"/>
  <path d="M69.48,10.28c-.72.4-1.58.73-2.57.73-1.13,0-1.99-.52-2.1-1.65,1.46.09,2.52.04,3.28-.08,2.37-.2,3.9-1.56,3.9-3.49,0-2.08-2-2.76-4-2.76-2.29,0-4.52,1.3-5.61,3.39-1.29-.62-1.99-1.54-1.67-2.68.6-2.07,2.09-3.73,2.09-3.73h-3.37c-.47.74-1.55,2.23-1.79,4.3-.56-.93-1.74-1.3-2.77-1.3-3.43,0-5.43,3.19-5.43,6.26,0,2.36,1.35,4.12,3.79,4.12,1.29,0,2.54-.55,3.39-1.52-.01.17-.02.37-.02.56,0,.28.02.56.08.73h2.95s-.06-.26-.06-.71c0-.2.02-.46.06-.75l.51-3.63c.47.26.98.5,1.56.69-.01.16-.02.31-.02.47,0,2.68,1.82,4.14,4.4,4.14,1.83,0,3.15-.45,4.44-1.36l.7,1.15.7-2.9-2.9-.7.44.72ZM54.57,10.69c-1.19,0-1.86-.85-1.86-2,0-1.53,1.01-3.11,2.66-3.11,1.19,0,1.86.85,1.86,2,0,1.53-1.01,3.11-2.66,3.11ZM68.06,4.94c.63,0,1.21.22,1.21.85,0,1.17-1.5,1.45-2.55,1.49l-.09-.04c-.54,0-1.05-.04-1.54-.1.26-.96,1.61-2.19,2.98-2.19Z"/>
</svg>